<svg id="Layer_1" data-name="Layer 1" xmlns="http://www.w3.org/2000/svg" xmlns:xlink="http://www.w3.org/1999/xlink" viewBox="0 0 700 700"><defs><style>.cls-1{fill:none;}.cls-2{fill:#fffafb;}.cls-3{fill:#ed3237;}.cls-4{fill:#fff;}.cls-5{fill:#414a4c;}.cls-6{fill:#f0565b;}.cls-7{fill:#f1f2f2;}.cls-8{clip-path:url(#clip-path);}.cls-9{clip-path:url(#clip-path-2);}.cls-10{fill:#f47c80;}.cls-11{clip-path:url(#clip-path-3);}.cls-12{fill:#fdeced;}.cls-13{clip-path:url(#clip-path-4);}</style><clipPath id="clip-path"><path class="cls-1" d="M458,175l.58.41q1.35,1,2.67,2l.66.54c.83.68,1.66,1.36,2.48,2.07l16.47-9.57-1.15-1c-.44-.37-.89-.73-1.33-1.09l-.66-.54-.23-.19q-1.08-.85-2.17-1.66l-.27-.2-.6-.42c-.42-.3-.83-.6-1.25-.89l-1-.67-.64-.43-.41-.27q-1-.64-2-1.24l-.47-.27-1.54-.86-.57-.3-.81-.42-.61-.31-1-.45-.72-.34-.29-.13q-.91-.41-1.8-.77l-.25-.1c-.62-.25-1.23-.48-1.84-.69l-.23-.08-.75-.24-1-.32-.48-.13-.86-.24-.66-.18-.67-.15-.87-.19-.45-.1-.78-.13-1-.17-.34-.06-.79-.08-1.06-.11-.3,0-.68,0c-.42,0-.84,0-1.25,0h-.34l-.52,0c-.52,0-1,0-1.53.07l-.46,0,0,0,0,0-.63.07-.47.06c-.57.08-1.14.16-1.7.28h-.05l-.43.1c-.47.1-.94.21-1.39.34l-.62.19c-.3.09-.6.18-.89.28l-.22.09c-.42.16-.84.33-1.25.51l-.65.27c-.62.29-1.22.6-1.81.94l-16.47,9.57c.59-.34,1.19-.65,1.81-.94l.62-.26c.42-.18.85-.36,1.28-.52s.72-.25,1.08-.36l.64-.2c.46-.13.92-.24,1.39-.34l.43-.1c.57-.12,1.16-.21,1.75-.29l.45-.05c.37,0,.74-.07,1.11-.1s1-.06,1.51-.07h.89c.4,0,.81,0,1.22,0l1,.05,1.05.11,1.15.14,1,.16,1.29.24.82.18,1.37.34.83.23c.5.14,1,.3,1.5.47l.68.22q2.18.75,4.43,1.78l.72.34q.78.37,1.57.77l.8.42c.7.37,1.41.75,2.12,1.16,1,.57,1.95,1.17,2.91,1.79l.61.4Q456.87,174.23,458,175Z"/></clipPath><clipPath id="clip-path-2"><path class="cls-1" d="M623.64,293v-.14q0-1.09,0-2.19c0-.14,0-.28,0-.42s0-.58,0-.87,0-.7,0-1.06,0-.54-.06-.81,0-.61-.07-.92,0-.42,0-.63c0-.45-.1-.9-.15-1.35,0-.25-.05-.5-.08-.75l0-.27q-.15-1.21-.35-2.43v-.05c0-.1,0-.21-.05-.31-.11-.7-.23-1.39-.36-2.09l-.08-.37c-.06-.32-.13-.64-.19-1s-.16-.8-.24-1.2c0-.22-.1-.43-.15-.65l-.25-1.08c-.06-.27-.12-.54-.19-.81s-.17-.64-.25-1-.19-.73-.29-1.09c0-.17-.09-.35-.14-.52-.13-.47-.27-.93-.41-1.4-.09-.3-.17-.59-.26-.89l-.08-.27q-.39-1.25-.8-2.5v0l-.1-.29c-.24-.72-.49-1.44-.75-2.16l-.13-.34-.32-.85c-.15-.39-.29-.79-.44-1.18l-.3-.75-.37-.91-.28-.69c-.19-.46-.39-.91-.58-1.36l-.29-.67-.12-.28q-.52-1.18-1.07-2.35l0-.09-.29-.6c-.3-.62-.59-1.24-.9-1.86l-.14-.28c-.24-.47-.48-.94-.73-1.41s-.41-.81-.63-1.22l-.12-.22q-1-1.88-2.09-3.73l-.18-.31-.56-.93c-.3-.5-.6-1-.91-1.5l-.85-1.34c-.31-.49-.63-1-.95-1.46l-.31-.49-.32-.45c-.89-1.31-1.79-2.62-2.73-3.89l0,0-.2-.26q-.92-1.24-1.87-2.45l-.09-.12c-.5-.63-1-1.26-1.52-1.88l-.33-.41,0,0q-.92-1.11-1.87-2.19l-.09-.1-.59-.65c-.4-.45-.8-.9-1.2-1.33l-.24-.25-.8-.84c-.32-.33-.63-.67-.95-1l-.36-.35-.89-.88-.8-.79-.45-.42-1-.92-.68-.64-.55-.48-1-.87-.61-.53-.68-.55-1-.78-.52-.42-.86-.65-.89-.68-.38-.29-1.18-.84-.72-.51-.21-.15q-1-.7-2.06-1.36h0l-.12-.07q-.95-.6-1.91-1.17l-.48-.28c-.48-.28-1-.54-1.44-.8l-.29-.95c-.06-.21-.13-.41-.2-.62q-.21-.68-.44-1.36l-.18-.55-.18-.53c-.14-.42-.29-.84-.44-1.27l-.23-.65-.18-.47-.44-1.16c-.1-.25-.19-.5-.28-.76l-.18-.44-.45-1.11-.31-.78-.16-.37-.49-1.15-.34-.78-.15-.34-.55-1.21-.36-.8-.13-.27c-.24-.51-.49-1-.74-1.52l-.32-.66-.06-.12q-.65-1.31-1.34-2.61l-.08-.16-.15-.27q-1-1.88-2.08-3.72v0l-.06-.11c-.57-1-1.17-2-1.77-2.91l-.37-.6q-.92-1.46-1.89-2.89l-.1-.16-.16-.23q-1.25-1.83-2.55-3.61l-.08-.12-.3-.39q-.72-1-1.45-1.9l-.31-.41-.29-.36-1.12-1.39-.43-.53-.16-.19q-.78-.94-1.58-1.85l-.12-.14h0q-.88-1-1.78-2l-.1-.11-.41-.43c-.45-.48-.9-.95-1.35-1.41l-.21-.21-.37-.36-1.35-1.33-.35-.35-.3-.28-1.4-1.3-.42-.39-.16-.14q-1-.89-2-1.74h0c-.66-.55-1.32-1.09-2-1.62l-.17-.14-.46-.35-1.35-1-.31-.24-.45-.32-1.22-.87-.43-.31-.38-.25-1.15-.76-.55-.36-.31-.19-1.11-.68-.62-.38-.47-.28-1.54-.86-.57-.3-.8-.42-.61-.32-1-.47-.67-.31-.31-.14q-1-.43-1.89-.8l-.06,0q-1-.39-1.94-.73l-.25-.08-.69-.23-1-.33-.48-.13-.84-.23-.67-.18-.67-.15-.89-.2-.46-.1-.79-.13-.93-.15-.34-.06-.79-.08-1.08-.11-.32,0-.7,0c-.41,0-.82,0-1.22,0h-.36l-.55,0c-.48,0-1,0-1.43.07l-.46,0-.68.08-.44.05c-.55.07-1.1.16-1.64.26l-.1,0-.59.14c-.41.09-.83.19-1.23.3l-.7.22c-.27.08-.54.16-.8.25l-.23.09c-.44.16-.88.34-1.31.53l-.61.26c-.62.29-1.23.6-1.83.95l-16.47,9.57c.59-.34,1.21-.66,1.83-.95l.6-.25c.43-.19.87-.37,1.32-.53s.68-.23,1-.34l.71-.22c.4-.11.81-.21,1.21-.3l.61-.14c.56-.11,1.14-.21,1.72-.28l.47-.05c.37,0,.74-.07,1.12-.1s1-.06,1.45-.07h.88c.41,0,.83,0,1.25,0l1,.05,1.1.11,1.12.13.93.15,1.27.24.89.2,1.32.33.87.24,1.46.45.71.23q2.19.76,4.44,1.78l.68.32q.81.38,1.63.8l.75.39c.71.38,1.42.76,2.14,1.18l1.1.66,1.1.67.87.56,1.13.75.84.58,1.14.81.86.63,1.18.9.79.61q.85.68,1.69,1.38l.3.24q1,.84,2,1.71l.62.56,1.34,1.24.73.7,1.21,1.2.71.71,1.29,1.35.52.55q.88,1,1.74,1.93l.43.5c.44.51.88,1,1.31,1.53l.6.73,1.13,1.4.59.75q.71.91,1.41,1.85l.44.58q1.29,1.75,2.53,3.57l.28.41q1,1.41,1.87,2.86l.41.65q.9,1.43,1.75,2.89l.08.13q1.08,1.85,2.08,3.73l.23.42q.69,1.3,1.34,2.61l.37.76c.26.52.51,1,.76,1.58l.45,1,.58,1.28c.17.37.33.74.49,1.11l.5,1.17.44,1.07.5,1.25.39,1q.26.67.5,1.34l.35,1q.25.69.48,1.38l.34,1q.24.72.46,1.44c.16.51.32,1,.47,1.52.47.26,1,.52,1.44.8.79.45,1.57.93,2.34,1.42l.17.1c.76.48,1.52,1,2.27,1.51l.79.56c.5.35,1,.71,1.49,1.07l.95.72,1.3,1,1,.83,1.25,1.05,1,.88,1.22,1.11,1,.94,1.2,1.16,1,.94,1.22,1.26.86.9c.47.51.94,1,1.41,1.54l.62.68q1,1.14,2,2.32l.21.26q.87,1.05,1.72,2.13,1,1.34,2.06,2.71c.94,1.28,1.85,2.59,2.75,3.91l.65,1c.32.48.63,1,.94,1.45l.85,1.34c.3.49.6,1,.9,1.48l.76,1.28q1.08,1.85,2.1,3.74c.23.44.46.88.69,1.32s.52,1,.77,1.49q.54,1.08,1.06,2.16l.28.57q.63,1.33,1.21,2.67l.34.8q.42,1,.82,2l.38.93q.38,1,.75,1.94l.32.84q.45,1.23.87,2.47l.12.33q.46,1.39.89,2.78l.26.9c.19.63.37,1.27.54,1.9.1.37.2.74.29,1.11q.23.88.44,1.76l.25,1.07q.21.91.39,1.82c.07.34.14.68.21,1q.21,1.11.39,2.22c0,.18.07.36.09.54.14.91.27,1.82.38,2.72,0,.25.06.51.08.76.07.66.14,1.32.2,2,0,.31.05.62.07.92q.07.94.11,1.87c0,.29,0,.58,0,.86,0,.87.05,1.74,0,2.61,0,.3,0,.58,0,.87,0,.5,0,1,0,1.48,0,.27,0,.54,0,.81,0,.49-.05,1-.09,1.45,0,.26,0,.5-.07.76,0,.49-.09,1-.15,1.44,0,.27-.07.54-.11.81-.06.47-.13.93-.21,1.39,0,.28-.1.55-.15.82q-.13.73-.29,1.44c-.05.24-.1.49-.16.73-.16.7-.34,1.39-.53,2.06l0,.15c-.23.78-.48,1.53-.75,2.27l-.2.54c-.32.84-.66,1.66-1,2.44l-.27.54c-.17.35-.35.7-.53,1l-.34.61c-.18.31-.36.62-.54.92l-.44.69-.37.55-.52.72-.38.5c-.2.25-.4.5-.61.74l-.34.41q-.48.55-1,1.07l16.47-9.57c.34-.35.68-.71,1-1.08l.29-.35c.22-.26.44-.53.66-.8l.34-.45c.19-.25.38-.51.56-.77l.34-.51.3-.45.17-.28c.18-.29.35-.58.52-.88l.37-.66c.17-.32.34-.65.5-1,.08-.16.17-.32.25-.48l.08-.17.23-.52c.15-.33.29-.66.43-1l.23-.59c.07-.18.14-.35.21-.53l.09-.28c.27-.74.52-1.49.75-2.27v0l0-.16c.19-.66.36-1.33.52-2,0-.09,0-.18.07-.27s.06-.32.09-.48c.1-.47.2-.95.29-1.43,0-.15.06-.3.09-.45s0-.25.05-.37c.08-.46.14-.92.21-1.39,0-.19.06-.38.08-.57l0-.25c.05-.45.1-.91.14-1.37,0-.23.05-.45.07-.68v-.17c0-.44.06-.9.08-1.35,0-.26,0-.52,0-.78v-.11c0-.41,0-.83,0-1.25S623.64,293.36,623.64,293Z"/></clipPath><clipPath id="clip-path-3"><polygon class="cls-1" points="232.04 570.11 283.78 540.24 283.78 566.79 232.04 596.67 232.04 570.11"/></clipPath><clipPath id="clip-path-4"><polygon class="cls-1" points="133.83 513.7 185.57 483.83 185.57 510.38 133.83 540.25 133.83 513.7"/></clipPath></defs><title>illustration</title><polygon class="cls-2" points="653.11 525 653.11 175 350 0 46.89 175 46.89 525 350 700 653.11 525"/><polygon class="cls-3" points="204.89 250.75 204.89 319.08 255.09 348.07 256.09 346.34 206.89 317.93 206.89 250.75 204.89 250.75 204.89 250.75"/><polygon class="cls-3" points="146.21 295.97 146.21 352.96 196.41 381.94 197.41 380.21 148.21 351.81 148.21 295.97 146.21 295.97 146.21 295.97"/><polygon class="cls-3" points="175.53 222.55 175.53 336.02 225.73 365.01 226.73 363.27 177.53 334.87 177.53 222.55 175.53 222.55 175.53 222.55"/><polygon class="cls-4" points="353.09 523.65 352.59 561.29 352.09 523.65 353.09 523.65"/><polygon class="cls-3" points="508.04 251.75 508.04 323.59 427.89 369.87 428.89 371.6 510.04 324.74 510.04 251.75 508.04 251.75 508.04 251.75"/><polygon class="cls-3" points="488.45 240.46 488.45 312.3 408.29 358.58 409.29 360.31 490.44 313.45 490.44 240.46 488.45 240.46 488.45 240.46"/><polygon class="cls-3" points="468.93 229.16 468.93 301 388.78 347.28 389.78 349.01 470.93 302.16 470.93 229.16 468.93 229.16 468.93 229.16"/><polygon class="cls-3" points="251.11 371.48 251.11 443.32 170.95 489.6 171.96 491.33 253.11 444.47 253.11 371.48 251.11 371.48 251.11 371.48"/><polygon class="cls-3" points="231.51 360.19 231.51 432.03 151.36 478.31 152.36 480.04 233.51 433.19 233.51 360.19 231.51 360.19 231.51 360.19"/><polygon class="cls-3" points="212 348.89 212 420.73 131.84 467.01 132.84 468.74 214 421.89 214 348.89 212 348.89 212 348.89"/><polygon class="cls-3" points="331.76 437.75 331.76 509.59 251.61 555.87 252.61 557.6 333.76 510.75 333.76 437.75 331.76 437.75 331.76 437.75"/><polygon class="cls-3" points="312.16 426.46 312.16 498.3 232.01 544.58 233.01 546.31 314.16 499.46 314.16 426.46 312.17 426.46 312.16 426.46"/><polygon class="cls-3" points="292.65 415.16 292.65 487 212.5 533.28 213.5 535.02 294.65 488.16 294.65 415.16 292.65 415.16 292.65 415.16"/><circle class="cls-5" cx="509.04" cy="323.34" r="3.42"/><polygon class="cls-3" points="527.1 262.92 527.1 334.76 446.94 381.04 447.94 382.78 529.1 335.92 529.1 262.92 527.1 262.92 527.1 262.92"/><circle class="cls-5" cx="528.1" cy="334.52" r="3.42"/><circle class="cls-5" cx="489.45" cy="312.88" r="3.42"/><circle class="cls-5" cx="469.93" cy="301.56" r="3.42"/><circle class="cls-5" cx="205.92" cy="250.77" r="3.42"/><circle class="cls-5" cx="205.92" cy="318.52" r="3.42"/><circle class="cls-5" cx="176.53" cy="222.55" r="3.42"/><circle class="cls-5" cx="176.53" cy="335.46" r="3.42"/><circle class="cls-5" cx="147.26" cy="295.97" r="3.42"/><circle class="cls-5" cx="147.26" cy="352.4" r="3.42"/><path class="cls-4" d="M458,175l.58.41q1.35,1,2.67,2l.66.54c.83.68,1.66,1.36,2.48,2.07l16.47-9.57-1.15-1c-.44-.37-.89-.73-1.33-1.09l-.66-.54-.23-.19q-1.08-.85-2.17-1.66l-.27-.2-.6-.42c-.42-.3-.83-.6-1.25-.89l-1-.67-.64-.43-.41-.27q-1-.64-2-1.24l-.47-.27-1.54-.86-.57-.3-.81-.42-.61-.31-1-.45-.72-.34-.29-.13q-.91-.41-1.8-.77l-.25-.1c-.62-.25-1.23-.48-1.84-.69l-.23-.08-.75-.24-1-.32-.48-.13-.86-.24-.66-.18-.67-.15-.87-.19-.45-.1-.78-.13-1-.17-.34-.06-.79-.08-1.06-.11-.3,0-.68,0c-.42,0-.84,0-1.25,0h-.34l-.52,0c-.52,0-1,0-1.53.07l-.46,0,0,0,0,0-.63.07-.47.06c-.57.08-1.14.16-1.7.28h-.05l-.43.1c-.47.1-.94.21-1.39.34l-.62.19c-.3.09-.6.18-.89.28l-.22.09c-.42.16-.84.33-1.25.51l-.65.27c-.62.29-1.22.6-1.81.94l-16.47,9.57c.59-.34,1.19-.65,1.81-.94l.62-.26c.42-.18.85-.36,1.28-.52s.72-.25,1.08-.36l.64-.2c.46-.13.92-.24,1.39-.34l.43-.1c.57-.12,1.16-.21,1.75-.29l.45-.05c.37,0,.74-.07,1.11-.1s1-.06,1.51-.07h.89c.4,0,.81,0,1.22,0l1,.05,1.05.11,1.15.14,1,.16,1.29.24.82.18,1.37.34.83.23c.5.14,1,.3,1.5.47l.68.22q2.18.75,4.43,1.78l.72.34q.78.37,1.57.77l.8.42c.7.37,1.41.75,2.12,1.16,1,.57,1.95,1.17,2.91,1.79l.61.4Q456.87,174.23,458,175Z"/><path class="cls-4" d="M623.64,293v-.14q0-1.09,0-2.19c0-.14,0-.28,0-.42s0-.58,0-.87,0-.7,0-1.06,0-.54-.06-.81,0-.61-.07-.92,0-.42,0-.63c0-.45-.1-.9-.15-1.35,0-.25-.05-.5-.08-.75l0-.27q-.15-1.21-.35-2.43v-.05c0-.1,0-.21-.05-.31-.11-.7-.23-1.39-.36-2.09l-.08-.37c-.06-.32-.13-.64-.19-1s-.16-.8-.24-1.2c0-.22-.1-.43-.15-.65l-.25-1.08c-.06-.27-.12-.54-.19-.81s-.17-.64-.25-1-.19-.73-.29-1.09c0-.17-.09-.35-.14-.52-.13-.47-.27-.93-.41-1.4-.09-.3-.17-.59-.26-.89l-.08-.27q-.39-1.25-.8-2.5v0l-.1-.29c-.24-.72-.49-1.44-.75-2.16l-.13-.34-.32-.85c-.15-.39-.29-.79-.44-1.18l-.3-.75-.37-.91-.28-.69c-.19-.46-.39-.91-.58-1.36l-.29-.67-.12-.28q-.52-1.18-1.07-2.35l0-.09-.29-.6c-.3-.62-.59-1.24-.9-1.86l-.14-.28c-.24-.47-.48-.94-.73-1.41s-.41-.81-.63-1.22l-.12-.22q-1-1.88-2.09-3.73l-.18-.31-.56-.93c-.3-.5-.6-1-.91-1.5l-.85-1.34c-.31-.49-.63-1-.95-1.46l-.31-.49-.32-.45c-.89-1.31-1.79-2.62-2.73-3.89l0,0-.2-.26q-.92-1.24-1.87-2.45l-.09-.12c-.5-.63-1-1.26-1.52-1.88l-.33-.41,0,0q-.92-1.11-1.87-2.19l-.09-.1-.59-.65c-.4-.45-.8-.9-1.2-1.33l-.24-.25-.8-.84c-.32-.33-.63-.67-.95-1l-.36-.35-.89-.88-.8-.79-.45-.42-1-.92-.68-.64-.55-.48-1-.87-.61-.53-.68-.55-1-.78-.52-.42-.86-.65-.89-.68-.38-.29-1.18-.84-.72-.51-.21-.15q-1-.7-2.06-1.36h0l-.12-.07q-.95-.6-1.91-1.17l-.48-.28c-.48-.28-1-.54-1.44-.8l-.29-.95c-.06-.21-.13-.41-.2-.62q-.21-.68-.44-1.36l-.18-.55-.18-.53c-.14-.42-.29-.84-.44-1.27l-.23-.65-.18-.47-.44-1.16c-.1-.25-.19-.5-.28-.76l-.18-.44-.45-1.11-.31-.78-.16-.37-.49-1.15-.34-.78-.15-.34-.55-1.21-.36-.8-.13-.27c-.24-.51-.49-1-.74-1.52l-.32-.66-.06-.12q-.65-1.31-1.34-2.61l-.08-.16-.15-.27q-1-1.88-2.08-3.72v0l-.06-.11c-.57-1-1.17-2-1.77-2.91l-.37-.6q-.92-1.46-1.89-2.89l-.1-.16-.16-.23q-1.25-1.83-2.55-3.61l-.08-.12-.3-.39q-.72-1-1.45-1.9l-.31-.41-.29-.36-1.12-1.39-.43-.53-.16-.19q-.78-.94-1.58-1.85l-.12-.14h0q-.88-1-1.78-2l-.1-.11-.41-.43c-.45-.48-.9-.95-1.35-1.41l-.21-.21-.37-.36-1.35-1.33-.35-.35-.3-.28-1.4-1.3-.42-.39-.16-.14q-1-.89-2-1.74h0c-.66-.55-1.32-1.09-2-1.62l-.17-.14-.46-.35-1.35-1-.31-.24-.45-.32-1.22-.87-.43-.31-.38-.25-1.15-.76-.55-.36-.31-.19-1.11-.68-.62-.38-.47-.28-1.54-.86-.57-.3-.8-.42-.61-.32-1-.47-.67-.31-.31-.14q-1-.43-1.89-.8l-.06,0q-1-.39-1.94-.73l-.25-.08-.69-.23-1-.33-.48-.13-.84-.23-.67-.18-.67-.15-.89-.2-.46-.1-.79-.13-.93-.15-.34-.06-.79-.08-1.08-.11-.32,0-.7,0c-.41,0-.82,0-1.22,0h-.36l-.55,0c-.48,0-1,0-1.43.07l-.46,0-.68.08-.44.05c-.55.07-1.1.16-1.64.26l-.1,0-.59.14c-.41.09-.83.19-1.23.3l-.7.22c-.27.08-.54.16-.8.25l-.23.09c-.44.16-.88.34-1.31.53l-.61.26c-.62.29-1.23.6-1.83.95l-16.47,9.57c.59-.34,1.21-.66,1.83-.95l.6-.25c.43-.19.87-.37,1.32-.53s.68-.23,1-.34l.71-.22c.4-.11.81-.21,1.21-.3l.61-.14c.56-.11,1.14-.21,1.72-.28l.47-.05c.37,0,.74-.07,1.12-.1s1-.06,1.45-.07h.88c.41,0,.83,0,1.25,0l1,.05,1.1.11,1.12.13.93.15,1.27.24.89.2,1.32.33.87.24,1.46.45.71.23q2.19.76,4.44,1.78l.68.32q.81.38,1.63.8l.75.39c.71.38,1.42.76,2.14,1.18l1.1.66,1.1.67.87.56,1.13.75.84.58,1.14.81.86.63,1.18.9.79.61q.85.68,1.69,1.38l.3.24q1,.84,2,1.71l.62.56,1.34,1.24.73.7,1.21,1.2.71.71,1.29,1.35.52.55q.88,1,1.74,1.93l.43.5c.44.51.88,1,1.31,1.53l.6.73,1.13,1.4.59.75q.71.91,1.41,1.85l.44.58q1.29,1.75,2.53,3.57l.28.41q1,1.41,1.87,2.86l.41.65q.9,1.43,1.75,2.89l.08.13q1.08,1.85,2.08,3.73l.23.42q.69,1.3,1.34,2.61l.37.76c.26.52.51,1,.76,1.58l.45,1,.58,1.28c.17.37.33.74.49,1.11l.5,1.17.44,1.07.5,1.25.39,1q.26.67.5,1.34l.35,1q.25.69.48,1.38l.34,1q.24.72.46,1.44c.16.51.32,1,.47,1.52.47.26,1,.52,1.44.8.79.45,1.57.93,2.34,1.42l.17.1c.76.48,1.52,1,2.27,1.51l.79.56c.5.35,1,.71,1.49,1.07l.95.72,1.3,1,1,.83,1.25,1.05,1,.88,1.22,1.11,1,.94,1.2,1.16,1,.94,1.22,1.26.86.9c.47.51.94,1,1.41,1.54l.62.68q1,1.14,2,2.32l.21.26q.87,1.05,1.72,2.13,1,1.34,2.06,2.71c.94,1.28,1.85,2.59,2.75,3.91l.65,1c.32.48.63,1,.94,1.45l.85,1.34c.3.49.6,1,.9,1.48l.76,1.28q1.08,1.85,2.1,3.74c.23.44.46.88.69,1.32s.52,1,.77,1.49q.54,1.08,1.06,2.16l.28.57q.63,1.33,1.21,2.67l.34.8q.42,1,.82,2l.38.93q.38,1,.75,1.94l.32.84q.45,1.23.87,2.47l.12.33q.46,1.39.89,2.78l.26.9c.19.63.37,1.27.54,1.9.1.37.2.74.29,1.11q.23.88.44,1.76l.25,1.07q.21.91.39,1.82c.07.34.14.68.21,1q.21,1.11.39,2.22c0,.18.07.36.09.54.14.91.27,1.82.38,2.72,0,.25.06.51.08.76.07.66.14,1.32.2,2,0,.31.05.62.07.92q.07.94.11,1.87c0,.29,0,.58,0,.86,0,.87.05,1.74,0,2.61,0,.3,0,.58,0,.87,0,.5,0,1,0,1.48,0,.27,0,.54,0,.81,0,.49-.05,1-.09,1.45,0,.26,0,.5-.07.76,0,.49-.09,1-.15,1.44,0,.27-.07.54-.11.81-.06.47-.13.93-.21,1.39,0,.28-.1.55-.15.82q-.13.73-.29,1.44c-.05.24-.1.49-.16.73-.16.7-.34,1.39-.53,2.06l0,.15c-.23.78-.48,1.53-.75,2.27l-.2.54c-.32.84-.66,1.66-1,2.44l-.27.54c-.17.35-.35.7-.53,1l-.34.61c-.18.31-.36.62-.54.92l-.44.69-.37.55-.52.72-.38.5c-.2.25-.4.5-.61.74l-.34.41q-.48.55-1,1.07l16.47-9.57c.34-.35.68-.71,1-1.08l.29-.35c.22-.26.44-.53.66-.8l.34-.45c.19-.25.38-.51.56-.77l.34-.51.3-.45.17-.28c.18-.29.35-.58.52-.88l.37-.66c.17-.32.34-.65.5-1,.08-.16.17-.32.25-.48l.08-.17.23-.52c.15-.33.29-.66.43-1l.23-.59c.07-.18.14-.35.21-.53l.09-.28c.27-.74.52-1.49.75-2.27v0l0-.16c.19-.66.36-1.33.52-2,0-.09,0-.18.07-.27s.06-.32.09-.48c.1-.47.2-.95.29-1.43,0-.15.06-.3.09-.45s0-.25.05-.37c.08-.46.14-.92.21-1.39,0-.19.06-.38.08-.57l0-.25c.05-.45.1-.91.14-1.37,0-.23.05-.45.07-.68v-.17c0-.44.06-.9.08-1.35,0-.26,0-.52,0-.78v-.11c0-.41,0-.83,0-1.25S623.64,293.36,623.64,293Z"/><path class="cls-5" d="M623.61,290.71l1,0c0-.17,0-.32,0-.43,0-.3,0-.59,0-.88s0-.7-.05-1.07,0-.57-.07-.82h0q0-.47-.07-.93c0-.19,0-.4-.05-.63h0c0-.47-.1-.93-.15-1.37,0-.24-.05-.49-.08-.76h0l0-.27v0h0q-.16-1.23-.35-2.47h0V281h0l-.05-.3h0c-.11-.7-.23-1.4-.37-2.11,0-.15-.06-.28-.08-.38h0c-.06-.33-.13-.65-.2-1s-.16-.8-.25-1.22c-.05-.24-.11-.46-.15-.66-.08-.37-.17-.73-.26-1.09s-.12-.52-.19-.81h0c-.08-.34-.18-.66-.25-1h0c-.09-.36-.19-.72-.29-1.1h0c0-.15-.08-.33-.14-.53h0c-.13-.48-.28-1-.41-1.42h0c-.08-.28-.17-.58-.26-.9h0l-.08-.27h0q-.39-1.26-.81-2.53v0l0,0-.93.36,1-.31-.1-.3c-.25-.73-.5-1.46-.76-2.19h0l-.13-.34-.32-.86c-.15-.38-.29-.78-.45-1.19h0l-.31-.76h0l-.37-.92h0l-.28-.69c-.19-.47-.4-.93-.59-1.38l-.29-.68h0l-.12-.28h0q-.53-1.19-1.08-2.37h0l0-.09-.9.44.9-.43-.29-.6h0c-.3-.62-.59-1.25-.91-1.88h0l-.14-.28c-.24-.48-.49-1-.73-1.42s-.41-.81-.63-1.23l-.13-.23-.87.49.88-.47q-1-1.9-2.11-3.76l-.18-.31h0l-.57-.93c-.3-.5-.6-1-.92-1.51s-.57-.91-.86-1.36-.63-1-1-1.48l-.32-.49h0l-.32-.45h0c-.89-1.32-1.8-2.63-2.75-3.92l-.81.59.82-.57,0,0h0l-.22-.28-.8.61.8-.6q-.93-1.25-1.89-2.47l-.79.62.79-.61-.09-.12h0c-.51-.65-1-1.27-1.53-1.9l-.33-.41-.77.64.79-.62,0,0h0q-.93-1.12-1.89-2.21l-.1-.11-.74.67.75-.66-.59-.66c-.4-.44-.8-.9-1.21-1.35l-.25-.26-.72.69.73-.68-.81-.85c-.31-.32-.62-.66-1-1h0l-.36-.36h0l-.89-.88-.81-.8-.46-.43-1-.93-.69-.64h0l-.55-.48-1-.88-.62-.54-.68-.56-1-.79-.52-.43-.87-.66-.9-.69h0l-.38-.29h0l-1.19-.85h0l-.73-.52-.57.82.58-.81-.21-.15h0q-1-.71-2.08-1.38h0l-.12-.07-.52.85.54-.84q-1-.61-1.94-1.19l-.48-.28c-.49-.28-1-.55-1.46-.81l-.48.88,1-.28-.29-1h0c-.07-.23-.14-.44-.2-.63-.14-.46-.29-.92-.44-1.37l-.18-.56h0l-.19-.53c-.15-.43-.3-.86-.45-1.28l-.23-.65h0l-.18-.48h0l-.44-1.17h0c-.09-.24-.18-.5-.29-.77h0l-.18-.45h0l-.45-1.12-.32-.78-.16-.37h0l-.5-1.16h0l-.34-.79-.16-.34h0l-.55-1.22h0l-.36-.8h0l-.13-.27h0c-.24-.52-.49-1-.74-1.53l-.32-.67h0l-.06-.12h0q-.66-1.32-1.36-2.63l-.88.47.89-.46-.08-.16v0l-.15-.27-.87.49.88-.47q-1-1.89-2.1-3.76l-.86.5.88-.47v-.05l-.08-.13-.85.52.86-.51q-.87-1.49-1.78-2.94l-.38-.6q-.93-1.47-1.9-2.92l-.83.56.84-.54-.1-.16v0l-.18-.25-.81.58.83-.56q-1.25-1.84-2.58-3.64l-.8.59.82-.57-.08-.12,0,0h0l-.29-.39h0q-.72-1-1.46-1.91h0l-.32-.41-.3-.37h0l-1.13-1.4-.43-.54-.17-.2-.76.65.77-.64q-.79-.94-1.59-1.87h0l-.12-.14h0q-.89-1-1.79-2l-.73.68.74-.67-.1-.11h0l-.42-.43h0c-.45-.48-.9-1-1.36-1.43l-.72.7.72-.69-.21-.21h0l-.37-.37-1.36-1.35-.36-.35h0l-.31-.29-1.41-1.31-.42-.39-.17-.15-.66.75.67-.74q-1-.9-2-1.76l0,0,0,0-.6.8.62-.78h0l-.62.78.65-.76c-.67-.56-1.34-1.11-2-1.64l-.62.78.63-.77-.17-.14h0l-.47-.36-1.37-1h0l-.32-.24h0l-.46-.32h0l-1.23-.88-.43-.31L534,150l-1.16-.77-.56-.37-.32-.19h0l-1.13-.69-.63-.39h0l-.47-.28q-.79-.45-1.57-.88h0l-.58-.3h0l-.82-.42-.62-.32h0l-1-.48-.68-.32h0l-.31-.15h0q-1-.43-1.93-.82h0l-.06,0h0q-1-.4-2-.75h0l-.26-.08-.31,1,.33-.95-.71-.23-1-.33h0l-.5-.14-.86-.24h0l-.68-.19-.69-.15-.91-.2-.48-.11-.81-.13-1-.16-.35-.06h0l-.82-.08-1.12-.11-.33,0-.72,0c-.41,0-.84,0-1.26,0h-.37l-.56,0c-.5,0-1,0-1.48.07l-.48,0-.7.08-.46.05c-.57.07-1.13.16-1.7.27h0l-.12,0,.23,1-.2-1-.62.14c-.42.09-.85.19-1.28.32l-.73.23c-.24.08-.52.15-.83.26h0l-.24.1.38.93-.34-.94c-.47.17-.93.36-1.36.55l-.63.27c-.64.3-1.28.63-1.91,1l-16.47,9.57,1,1.75.1-.05-.46-.89-.5-.87a25.58,25.58,0,0,0-8.74,8.46l.84.54.52-.85-.88-.54-.47-.28q-.78-.45-1.57-.88l-.58-.3-.82-.43-.62-.32-1-.46-.73-.34h0l-.29-.13q-.93-.41-1.84-.78h0l-.25-.1c-.63-.25-1.25-.49-1.88-.71h0l-.23-.07-.31,1,.33-.95-.76-.25-1-.32h0l-.49-.14-.88-.24-.67-.19h0l-.69-.15-.89-.2-.46-.1-.8-.13-1-.17-.36-.06-.82-.08-1.09-.11-.31,0h0l-.71,0c-.42,0-.86,0-1.29,0h-.35v2h0v-2l-.54,0c-.53,0-1.06,0-1.59.07l-.48,0-.65.08-.48.06c-.59.08-1.18.17-1.76.29h0l-.07,0,.23,1-.2-1-.45.11h0c-.48.11-1,.22-1.45.36l-.64.2c-.28.09-.59.17-.93.29h0l-.24.1.38.93-.34-.94c-.46.17-.89.35-1.3.53-.18.08-.41.17-.67.29-.64.3-1.27.62-1.89,1L417.2,167l1,1.75.08,0-.46-.89-.5-.87a26.74,26.74,0,0,0-10.77,12.15c-2.53,5.4-3.92,12.06-3.94,19.84v.19a81.15,81.15,0,0,0,2.71,20.13l.1.41L598,330.87,615,320.94l.09-.09c.36-.36.71-.74,1-1.13h0l.3-.36h0c.22-.27.45-.54.68-.83l.35-.47c.19-.26.39-.52.58-.8l.35-.52.31-.46.17-.29h0c.19-.3.36-.6.54-.91h0l.38-.68c.18-.34.35-.68.52-1h0c.07-.13.16-.29.25-.5v0l.08-.18-.91-.41.91.42.24-.53c.15-.33.3-.67.44-1l.24-.61h0c.06-.16.14-.33.22-.55v0l.1-.29-.95-.31.94.34c.27-.75.54-1.53.77-2.33l-1-.28.94.33v-.07l.05-.2-1-.25,1,.28c.2-.68.37-1.37.54-2.07l-1-.23,1,.24s0-.14.08-.29h0c0-.2.07-.37.1-.49h0c.11-.48.2-1,.29-1.46h0c0-.11.06-.26.09-.45h0c0-.16,0-.29.06-.38h0c.08-.47.15-.94.21-1.41,0-.16.06-.35.09-.58h0l0-.26-1-.1,1,.12c.06-.47.1-.93.14-1.39,0-.21,0-.43.07-.69h0v-.18l-1-.06,1,.08c0-.46.06-.92.08-1.37,0-.24,0-.5,0-.79h0v-.12l-1,0,1,0c0-.43,0-.86,0-1.27s0-.62,0-1h0v-.24q0-1.06,0-2.12l-1,0-1,0q0,1,0,2.06V293h0c0,.3,0,.6,0,.94s0,.84,0,1.23v.13l1,0-1,0c0,.24,0,.49,0,.77,0,.45,0,.9-.08,1.33v.18l1,.06-1-.08c0,.2,0,.42-.07.67,0,.46-.09.91-.14,1.34h0l0,.26,1,.1-1-.12c0,.16-.05.34-.08.56-.06.46-.13.92-.2,1.36h0c0,.15,0,.28-.05.36h0c0,.11-.05.26-.09.45h0q-.13.71-.28,1.4h0c0,.19-.07.35-.09.46h0l-.07.25h0c-.16.67-.33,1.33-.51,2v0l0,.18,1,.25-.95-.33v.07c-.22.76-.47,1.49-.73,2.21v0l-.09.28,1,.31-.94-.35c-.05.15-.13.31-.2.51h0l-.23.57c-.13.32-.27.64-.42,1l-.22.5h0l-.08.17.91.41-.9-.43-.24.47h0c-.16.33-.32.65-.48.95l-.36.63h0c-.17.29-.33.57-.5.85h0l-.16.27-.29.43-.33.49c-.17.25-.35.49-.54.74l-.33.43c-.2.26-.41.51-.63.77h0l-.29.34h0c-.32.36-.64.71-1,1l.71.7-.5-.86-16,9.28L406.75,218.17l-.5.87,1-.25a79.19,79.19,0,0,1-2.65-19.63V199c0-7.55,1.37-13.93,3.75-19a24.74,24.74,0,0,1,10-11.26l-1-1.75-.08,0,.46.89.5.86,16.47-9.57c.56-.32,1.14-.62,1.73-.9L437,158c.41-.18.8-.34,1.19-.49h0l.25-.1-.38-.93.33.94c.25-.09.54-.17.85-.27l.59-.19c.43-.12.88-.23,1.34-.33h0l.42-.1h0l.06,0-.23-1,.2,1c.53-.11,1.07-.19,1.63-.27l.45-.05.6-.07.45,0c.48,0,1-.06,1.48-.07l.5,0v-2h0v2h.33l1.21,0,.66,0h0l.3,0,1,.1.77.08.33.06,1,.16.75.12.43.1.85.19.66.15h0l.65.18.84.23.47.13h0l.94.31.73.24h0l.23.07.31-1-.33.94c.59.21,1.19.44,1.8.68l.25.1h0q.88.36,1.77.75l.28.13h0l.7.33.94.44.59.31.8.41.56.29,1.52.85.46.27.86.52.83.51.53-.82a23.58,23.58,0,0,1,8.06-7.81l-1-1.75-.1.05.46.89.5.86,16.47-9.57c.56-.33,1.15-.63,1.75-.91l.58-.25c.42-.18.84-.36,1.25-.51h0l.24-.1-.38-.93.33.94.77-.24.67-.21c.37-.1.77-.2,1.18-.29l.57-.13h0l.11,0-.23-1,.19,1c.51-.1,1-.18,1.58-.25l.43,0,.66-.08.44,0c.45,0,.91-.05,1.38-.06l.53,0h.35l1.18,0,.68,0,.31,0,1.05.11.77.08h0l.33.05.91.15.77.13.45.1.86.19.66.15.65.18h0l.82.23.47.13h0l1,.32.67.22h0l.26.08.31-1-.33.94q.94.33,1.9.72h0l.06,0h0q.92.37,1.86.79h0l.3.14h0l.65.31,1,.46h0l.6.31.79.41h0l.56.29h0l1.52.85.47.27h0l.61.37,1.09.67h0l.3.18.54.36,1.13.75.37.25.42.3,1.2.85h0l.44.31h0l.31.23h0l1.33,1,.45.34.62-.78-.63.77.17.14h0c.66.52,1.31,1.05,2,1.6h0l0,0h0l.6-.8-.65.76q1,.84,2,1.72h0l.16.14.66-.75-.67.74.42.39,1.38,1.29.3.28h0l.34.34,1.33,1.32.36.36.72-.7-.72.69.21.21h0c.45.46.89.93,1.34,1.4h0l.4.42.73-.68-.74.67.1.11h0q.89,1,1.76,2h0l.12.14h0q.79.9,1.57,1.83h0l.16.19.76-.65-.77.64.43.53,1.11,1.38h0l.29.36.3.4h0q.73.93,1.44,1.88h0l.3.39.8-.6-.82.57.08.12v0h0q1.3,1.75,2.53,3.57v0l.15.22.08.13v0q1,1.42,1.87,2.87l.37.59q.9,1.44,1.75,2.89l.06.1h0v0q1.06,1.82,2.06,3.69v0l.13.24.08.15h0q.68,1.29,1.33,2.59h0l.06.12h0l.31.65c.25.5.49,1,.73,1.51h0l.13.27h0l.36.79h0l.55,1.2h0l.15.33.33.78h0l.49,1.14h0l.16.37.31.77.44,1.1h0l.17.43h0c.09.23.18.48.28.75h0l.43,1.15h0l.17.46h0l.22.64.44,1.25.18.52h0l.18.55q.22.67.43,1.35c.07.22.14.43.2.61h0l.28.94.12.4.37.2c.47.26,1,.52,1.42.78l.47.27c.63.37,1.26.75,1.88,1.15h0l.12.08.52-.85-.53.85h0q1,.65,2,1.34l.56-.83-.58.81.21.15h0l.7.5h0l1.16.83h0l.38.29h0l.88.67.84.64.51.42.95.78.67.55.6.53,1,.86.54.47h0l.68.63,1,.91.45.42.79.78.88.87h0l.36.35h0c.3.31.61.64.94,1l.79.83h0l.24.25.72-.69-.73.68c.4.43.79.87,1.19,1.32l.58.64.1.11.74-.67-.75.66q.94,1.07,1.85,2.17l.77-.64-.79.62,0,0h0l.33.4c.51.62,1,1.24,1.5,1.86l.79-.62-.8.61.09.12,0,0v0q.94,1.2,1.85,2.43l.19.25v0l0,0c.92,1.26,1.82,2.55,2.7,3.85h0l.31.44h0l.31.48c.31.48.63,1,.94,1.45l.84,1.33c.3.49.6,1,.9,1.49l.56.92h0l.17.31q1.07,1.84,2.08,3.7v0l.12.21.87-.49-.88.47c.21.38.41.79.62,1.2s.49.94.72,1.4l.14.28h0c.3.61.6,1.22.89,1.85h0l.29.59h0l0,.08.9-.44-.91.42q.54,1.16,1.06,2.33h0l.12.28h0l.29.67c.2.46.4.91.58,1.35l.27.68h0l.36.9h0l.3.75h0c.15.38.29.77.44,1.17l.32.84.13.34h0c.26.71.5,1.43.75,2.14l.1.28v0l0,0,.93-.36-.95.32q.41,1.24.8,2.48l1-.29-1,.28.08.27h0c.09.28.17.58.26.88h0c.14.47.28.94.4,1.39h0c0,.15.08.32.14.52h0c.1.35.19.71.28,1.08h0c.09.33.18.65.25,1h0c.06.25.12.51.19.8l.25,1.07c.05.23.11.45.15.64.08.38.16.78.24,1.19s.13.64.19.94h0l.07.37c.13.68.24,1.37.36,2.06l1-.16-1,.15c0,.13,0,.24.05.32h0v.05h0q.19,1.2.34,2.4l1-.13-1,.11,0,.27h0c0,.24.05.48.08.75.05.46.11.91.15,1.34h0c0,.19,0,.39,0,.62s.05.6.07.9h0c0,.28,0,.55.06.8s0,.68,0,1,0,.58,0,.85,0,.3,0,.41Z"/><polygon class="cls-4" points="574.22 395.68 567.7 437.08 352.59 561.29 137.48 437.08 130.96 395.68 574.22 395.68"/><polygon class="cls-4" points="130.96 395.68 352.59 267.71 574.22 395.68 352.59 523.65 130.96 395.68"/><polygon class="cls-3" points="352.59 523.65 352.59 561.29 137.48 437.08 130.96 395.68 352.59 523.65"/><polygon class="cls-4" points="574.22 395.68 130.96 395.68 352.59 267.71 574.22 395.68"/><polygon class="cls-6" points="333.04 290.29 352.59 301.58 372.15 290.29 352.59 279 333.04 290.29"/><polygon class="cls-3" points="333.04 290.29 333.04 295.94 352.59 307.23 372.15 295.94 372.15 290.29 352.59 301.58 333.04 290.29"/><polygon class="cls-5" points="504 388.86 523.64 400.2 543.28 388.86 523.64 377.51 504 388.86"/><polygon class="cls-4" points="504 388.86 504 394.53 523.64 405.87 543.28 394.53 543.28 388.86 523.64 400.2 504 388.86"/><polygon class="cls-7" points="523.64 405.87 504 394.52 504 388.86 523.64 400.2 523.64 405.87"/><polygon class="cls-7" points="543.28 394.53 523.64 400.2 523.64 405.87 543.28 394.53"/><polygon class="cls-5" points="522.74 405.87 523.64 400.2 524.54 405.87 522.74 405.87"/><polygon class="cls-5" points="523.64 377.51 523.19 376.73 503.09 388.33 503.09 395.05 523.64 406.91 544.19 395.05 544.19 388.33 523.64 376.47 523.19 376.73 523.64 377.51 523.19 378.3 542.38 389.38 542.38 394.01 523.64 404.83 504.9 394.01 504.9 389.38 524.09 378.3 523.64 377.51 523.19 378.3 523.64 377.51"/><g class="cls-8"><path class="cls-7" d="M446.79,183.11l.61.37q1.42.88,2.82,1.83l.7.48c.88.61,1.76,1.23,2.63,1.88l15.69-10.81L468,176c-.47-.34-.94-.66-1.41-1l-.7-.48-.25-.17q-1.14-.77-2.29-1.48l-.29-.17-.63-.38-1.31-.79-1.06-.59-.67-.37-.43-.24q-1.06-.56-2.12-1.08l-.49-.24-1.6-.74-.59-.25-.84-.36-.63-.27-1-.38-.74-.28-.29-.11c-.62-.22-1.24-.43-1.86-.62l-.26-.08c-.63-.2-1.26-.38-1.89-.55l-.23-.06-.76-.19-1-.24-.49-.09-.88-.17-.67-.13-.68-.1-.88-.13-.45-.06-.78-.07-1-.09-.35,0-.8,0-1.06,0h-.31l-.68,0c-.42,0-.84,0-1.25.06l-.34,0h0l-.51.06c-.51.05-1,.11-1.52.19l-.46.06,0,0,0,0-.62.12-.46.09c-.57.12-1.13.25-1.67.41l0,0-.42.14c-.46.14-.92.28-1.36.45l-.6.24c-.29.11-.58.22-.87.35l-.21.11c-.41.19-.81.39-1.2.6l-.62.32c-.59.33-1.17.69-1.73,1.08L406,179.08c.56-.39,1.14-.74,1.73-1.08l.6-.31c.41-.22.82-.43,1.24-.62s.7-.3,1.05-.44l.62-.25c.45-.16.9-.31,1.36-.45l.42-.14c.56-.16,1.14-.3,1.73-.42l.44-.09c.36-.07.73-.13,1.1-.18s1-.14,1.5-.19l.89-.08c.4,0,.81,0,1.22-.05l1,0,1.06,0,1.15.05,1,.08,1.3.14.83.12,1.39.23.85.17c.51.11,1,.22,1.54.35l.69.17q2.24.58,4.56,1.43l.74.28,1.62.64.83.35c.73.32,1.46.64,2.2,1,1,.49,2,1,3,1.56l.64.35Q445.58,182.38,446.79,183.11Z"/></g><g class="cls-9"><path class="cls-7" d="M621,292.24v-.14q-.08-1.09-.2-2.18c0-.14,0-.28-.05-.42s-.07-.57-.11-.86-.08-.7-.13-1.05-.09-.54-.13-.8-.09-.61-.14-.91-.06-.41-.1-.62c-.08-.45-.17-.89-.25-1.34,0-.25-.09-.5-.14-.74l0-.26q-.25-1.2-.53-2.4v-.05l-.08-.3c-.17-.69-.34-1.37-.52-2.06l-.1-.37c-.08-.31-.18-.62-.27-.94s-.22-.79-.34-1.18c-.06-.21-.14-.42-.2-.64s-.22-.71-.33-1.06-.16-.53-.25-.79-.22-.62-.32-.94l-.37-1.06-.18-.51c-.17-.46-.34-.91-.52-1.37l-.33-.87-.1-.26q-.48-1.22-1-2.44v0l-.12-.28q-.45-1.05-.92-2.1L613,263l-.38-.83c-.18-.38-.35-.76-.53-1.14l-.36-.73-.44-.88-.33-.66c-.22-.44-.46-.88-.69-1.32l-.34-.65-.14-.27q-.61-1.13-1.25-2.26l0-.08-.33-.57c-.34-.6-.69-1.19-1-1.79l-.17-.27c-.27-.45-.55-.9-.83-1.35s-.47-.78-.72-1.16l-.14-.21q-1.15-1.8-2.37-3.56l-.2-.3c-.21-.3-.42-.59-.63-.88l-1-1.42-1-1.27L599.07,240l-.35-.46-.35-.42c-1-1.24-2-2.47-3-3.66l0,0-.22-.24q-1-1.17-2.05-2.3l-.1-.11c-.55-.59-1.1-1.18-1.66-1.76l-.36-.38,0,0q-1-1-2-2l-.1-.1-.64-.6c-.43-.41-.86-.83-1.3-1.24l-.25-.23-.86-.77-1-.92-.38-.33-1-.8-.86-.72-.48-.39-1.06-.84-.73-.58-.58-.43-1.06-.79-.65-.48-.72-.5-1-.71-.55-.38-.91-.59-.94-.61-.4-.26-1.24-.74-.75-.45-.23-.14q-1.08-.62-2.16-1.2h0l-.12-.06q-1-.53-2-1l-.5-.24c-.5-.24-1-.46-1.5-.68l-.36-.92-.25-.6-.54-1.32-.22-.54-.22-.51-.54-1.23-.27-.63-.21-.46-.52-1.12-.34-.73-.21-.42-.53-1.07-.37-.75-.19-.36-.58-1.11-.4-.76-.18-.33-.64-1.16-.42-.77-.15-.26c-.28-.49-.56-1-.85-1.46l-.37-.63-.07-.12q-.75-1.26-1.54-2.5l-.1-.16-.17-.25q-1.15-1.8-2.36-3.55l0,0-.07-.1c-.65-.93-1.31-1.86-2-2.77l-.42-.57q-1-1.39-2.1-2.74l-.11-.15-.18-.22q-1.38-1.73-2.82-3.4l-.09-.11-.33-.36q-.79-.9-1.59-1.78l-.34-.38-.32-.34-1.23-1.3-.47-.5-.17-.17q-.85-.87-1.72-1.72l-.12-.13h0q-1-.93-1.92-1.83l-.11-.11-.44-.4-1.46-1.31-.22-.2-.39-.33-1.45-1.23-.38-.32-.32-.26L530,164.1l-.45-.36-.17-.12c-.71-.54-1.41-1.07-2.13-1.59h0q-1-.75-2.11-1.46l-.17-.12-.49-.31-1.43-.92-.33-.21-.47-.28-1.28-.77-.45-.27-.39-.22-1.2-.67-.57-.32-.32-.17-1.16-.59-.65-.33-.49-.24-1.61-.74-.59-.25-.83-.35-.63-.27-1-.39-.69-.26-.32-.12q-1-.35-2-.65l-.06,0q-1-.31-2-.58l-.26-.06-.71-.17-1-.25-.49-.1-.86-.17-.68-.13-.68-.1-.9-.13-.47-.07-.8-.07-.94-.08-.34,0-.8,0-1.09,0h-.32l-.7,0-1.22.05-.36,0-.54.07c-.48,0-1,.11-1.42.18l-.46.06h0l-.67.13-.44.09c-.54.11-1.08.24-1.61.39l-.09,0-.58.18c-.41.13-.81.25-1.21.4l-.68.27c-.26.1-.52.2-.78.31l-.22.11c-.43.2-.85.41-1.26.63l-.59.3c-.6.34-1.18.7-1.75,1.09l-15.69,10.81c.57-.39,1.15-.75,1.75-1.09l.57-.3c.42-.22.84-.44,1.27-.63s.66-.28,1-.42l.69-.27c.39-.14.79-.27,1.19-.39l.6-.19c.55-.16,1.12-.29,1.69-.42l.46-.09,1.11-.18c.47-.07,1-.13,1.44-.18l.88-.08c.41,0,.83,0,1.25-.06l1,0,1.11,0,1.12,0,.94.08,1.28.14.9.13,1.34.23.88.17,1.49.34.73.18q2.24.58,4.56,1.43l.71.27c.56.21,1.12.43,1.68.67l.78.33c.74.32,1.48.65,2.23,1l1.15.57,1.15.59.91.49,1.19.66.88.51,1.2.72.91.56,1.25.81.83.55q.9.61,1.79,1.25l.31.22q1.05.76,2.09,1.56l.66.51,1.43,1.14.78.65,1.3,1.1.76.66,1.39,1.25.56.51q1,.88,1.89,1.79l.46.46c.48.47,1,.95,1.42,1.43l.65.68,1.24,1.31.64.7q.78.86,1.55,1.73l.48.55q1.43,1.65,2.79,3.36l.31.39q1.06,1.34,2.08,2.71l.45.61q1,1.36,2,2.75l.08.12q1.22,1.76,2.36,3.56l.26.4q.79,1.24,1.54,2.5l.43.73c.3.5.59,1,.88,1.51l.52.92.68,1.24.57,1.07.59,1.13.52,1,.6,1.2.47,1c.21.43.41.87.61,1.3l.43,1,.59,1.34.41,1q.29.7.57,1.4c.2.49.4,1,.59,1.48.49.22,1,.45,1.5.68.82.39,1.63.81,2.45,1.24l.17.09c.8.42,1.59.87,2.38,1.33l.83.5c.52.31,1,.63,1.56,1l1,.65,1.37.91,1.08.75,1.33,1,1.07.8,1.31,1,1.08.86,1.28,1.06,1,.87,1.32,1.17.93.84c.51.47,1,.95,1.52,1.43l.67.63q1.09,1.06,2.16,2.16l.23.25q.95,1,1.88,2,1.15,1.25,2.26,2.54c1,1.2,2,2.44,3,3.69l.72.91,1,1.37,1,1.27,1,1.4.86,1.22q1.22,1.77,2.38,3.57c.27.42.53.84.79,1.26s.59.95.88,1.43q.62,1,1.22,2.08l.32.55q.73,1.28,1.42,2.57l.41.77q.49.94,1,1.88l.45.9q.46.94.9,1.88l.38.81q.54,1.19,1.06,2.39l.14.32q.57,1.35,1.1,2.71l.33.88c.23.62.46,1.24.68,1.85.13.36.25.72.38,1.08q.3.86.57,1.72.17.53.33,1.05c.18.6.36,1.19.53,1.79.1.33.19.67.28,1q.3,1.09.56,2.19c0,.18.09.35.14.53q.32,1.35.59,2.69c.05.25.09.5.14.75.13.65.24,1.3.35,2q.07.46.14.91.14.93.26,1.86c0,.29.07.57.11.86.1.87.19,1.74.25,2.6,0,.29,0,.58,0,.87,0,.49.06,1,.08,1.48,0,.27,0,.54,0,.81,0,.49,0,1,0,1.45,0,.26,0,.51,0,.76,0,.49,0,1,0,1.45,0,.28,0,.55,0,.82,0,.47-.06.94-.1,1.4,0,.28-.05.56-.08.83-.05.49-.11,1-.18,1.46,0,.25-.07.49-.1.74-.11.71-.23,1.41-.37,2.09l0,.15c-.17.8-.36,1.57-.57,2.32l-.16.55c-.25.86-.53,1.71-.84,2.52-.07.19-.15.37-.23.56-.15.36-.29.72-.45,1.07s-.2.42-.29.63-.31.65-.47,1l-.39.73-.32.57c-.15.26-.31.51-.47.76l-.34.53c-.18.27-.36.53-.55.79l-.31.43c-.29.39-.6.78-.91,1.15L613.91,320c.32-.37.62-.76.92-1.16l.27-.37c.2-.28.4-.56.59-.85l.3-.48c.17-.27.34-.54.5-.82l.3-.53.27-.47.14-.3c.16-.3.3-.6.45-.91l.32-.68c.15-.33.29-.67.42-1,.07-.17.14-.33.21-.5l.06-.17.19-.53c.12-.34.24-.68.35-1l.19-.61c.06-.18.12-.36.17-.55s0-.19.07-.28c.21-.76.41-1.53.57-2.33v0l0-.17c.14-.67.26-1.35.37-2,0-.09,0-.18,0-.27s0-.32.06-.48q.1-.71.18-1.45c0-.15,0-.3.05-.46s0-.25,0-.37c0-.46.07-.93.1-1.4,0-.19,0-.38,0-.58v-.25c0-.45,0-.91,0-1.37,0-.23,0-.45,0-.69v-.17c0-.44,0-.9,0-1.35,0-.26,0-.52,0-.78v-.11c0-.41,0-.83-.07-1.25S621,292.56,621,292.24Z"/></g><path class="cls-3" d="M558.89,218.83c26.75,15.44,48.37,52.88,48.28,83.64,0,12.13-3.45,21.4-9.21,27.25L406.25,219A80,80,0,0,1,403.57,199c.09-30.76,21.84-43.16,48.61-27.7a78.18,78.18,0,0,1,12.22,8.84c2.5-26.77,23.21-36.83,48.36-22.3C533,169.46,550.23,193.64,557.44,218c.47.26,1,.52,1.44.8"/><polygon class="cls-7" points="567.7 437.08 352.59 523.65 352.59 561.29 567.7 437.08"/><polygon class="cls-5" points="574.72 396.55 352.59 523.65 573.72 394.81 574.72 396.55"/><polygon class="cls-7" points="352.59 267.71 352.59 523.65 130.96 395.68 352.59 267.71"/><polygon class="cls-5" points="328.06 490.87 347.71 502.21 367.35 490.87 347.71 479.52 328.06 490.87"/><polygon class="cls-4" points="328.06 490.87 328.06 496.54 347.71 507.88 367.35 496.54 367.35 490.87 347.71 502.21 328.06 490.87"/><polygon class="cls-7" points="347.7 507.88 328.06 496.54 328.06 490.87 347.7 502.21 347.7 507.88"/><polygon class="cls-7" points="367.35 496.54 347.71 502.21 347.71 507.88 367.35 496.54"/><polygon class="cls-5" points="346.81 507.88 347.71 502.21 348.61 507.88 346.81 507.88"/><polygon class="cls-5" points="347.71 479.52 347.26 478.74 327.16 490.35 327.16 497.06 347.71 508.92 368.25 497.06 368.25 490.35 347.71 478.48 347.26 478.74 347.71 479.52 347.26 480.31 366.45 491.39 366.45 496.02 347.71 506.84 328.96 496.02 328.96 491.39 348.16 480.31 347.71 479.52 347.26 480.31 347.71 479.52"/><polygon class="cls-5" points="156.72 391.69 176.36 403.03 196.01 391.69 176.36 380.35 156.72 391.69"/><polygon class="cls-4" points="156.72 391.69 156.72 397.36 176.36 408.7 196.01 397.36 196.01 391.69 176.36 403.03 156.72 391.69"/><polygon class="cls-7" points="176.36 408.7 156.72 397.36 156.72 391.69 176.36 403.03 176.36 408.7"/><polygon class="cls-7" points="196.01 397.36 176.36 403.03 176.36 408.7 196.01 397.36"/><polygon class="cls-5" points="175.46 408.7 176.36 403.03 177.27 408.7 175.46 408.7"/><polygon class="cls-5" points="176.36 380.35 175.91 379.56 155.82 391.17 155.82 397.88 176.36 409.74 196.91 397.88 196.91 391.17 176.36 379.3 175.91 379.56 176.36 380.35 175.91 381.13 195.11 392.21 195.11 396.84 176.36 407.66 157.62 396.84 157.62 392.21 176.81 381.13 176.36 380.35 175.91 381.13 176.36 380.35"/><polygon class="cls-10" points="214.79 540.24 226.29 546.88 243.54 536.92 232.04 530.28 214.79 540.24"/><polygon class="cls-4" points="174.55 536.92 226.29 507.04 283.78 540.24 232.04 570.11 174.55 536.92"/><polygon class="cls-4" points="174.55 536.92 174.55 563.47 232.04 596.67 232.04 570.11 174.55 536.92"/><polygon class="cls-4" points="232.04 570.11 283.78 540.24 283.78 566.79 232.04 596.67 232.04 570.11"/><g class="cls-11"><polygon class="cls-7" points="283.78 566.79 234.88 591.94 232.04 570.11 232.04 596.67 283.78 566.79"/></g><polygon class="cls-3" points="174.55 536.92 174.55 563.47 232.04 596.67 232.04 570.11 174.55 536.92"/><polygon class="cls-12" points="237.79 573.43 237.3 580.79 243.54 576.75 237.79 573.43"/><polygon class="cls-12" points="265.63 557.36 265.13 564.72 271.38 560.68 265.63 557.36"/><polygon class="cls-12" points="272.28 553.51 271.79 560.87 278.03 556.83 272.28 553.51"/><polygon class="cls-5" points="237.79 573.43 237.79 580.07 243.54 576.75 243.54 570.11 237.79 573.43"/><polygon class="cls-3" points="278.03 550.19 278.03 556.84 272.28 560.15 272.28 553.51 278.03 550.19"/><polygon class="cls-3" points="271.38 554.04 271.38 560.67 265.63 563.99 265.63 557.35 271.38 554.04"/><polygon class="cls-4" points="180.3 546.88 180.3 553.52 186.04 556.84 186.05 550.19 180.3 546.88"/><polygon class="cls-7" points="226.29 507.04 232.04 570.11 174.55 536.92 226.29 507.04"/><polygon class="cls-5" points="197.55 536.92 226.29 520.32 260.79 540.24 232.04 556.84 197.55 536.92"/><polygon class="cls-5" points="284.16 540.89 232.04 570.11 283.41 539.59 284.16 540.89"/><polygon class="cls-5" points="231.53 596.67 232.04 570.11 232.55 596.67 231.53 596.67"/><polygon class="cls-5" points="226.29 507.04 226.03 506.6 174.04 536.62 174.04 563.77 232.04 597.26 284.29 567.09 284.3 539.94 226.29 506.45 226.03 506.6 226.29 507.04 226.03 507.49 283.27 540.53 283.26 566.5 232.04 596.07 175.06 563.17 175.06 537.22 226.55 507.49 226.29 507.04 226.03 507.49 226.29 507.04"/><polygon class="cls-5" points="352.59 267.71 352.09 266.85 129.87 395.16 136.57 437.71 352.59 562.44 568.62 437.71 575.32 395.16 352.59 266.56 352.09 266.85 352.59 267.71 352.09 268.58 573.13 396.2 566.79 436.45 352.59 560.13 138.39 436.45 132.06 396.2 353.09 268.58 352.59 267.71 352.09 268.58 352.59 267.71"/><polygon class="cls-3" points="248.49 178.51 248.49 393.63 358.07 456.9 358.07 241.78 248.49 178.51"/><polygon class="cls-4" points="358.07 241.78 456.69 184.83 456.69 399.96 358.07 456.9 358.07 241.78"/><polygon class="cls-4" points="281.36 235.45 325.2 260.76 325.2 273.42 281.36 248.1 281.36 235.45"/><polygon class="cls-4" points="281.36 286.07 325.2 311.38 325.2 324.03 281.36 298.72 281.36 286.07"/><polygon class="cls-4" points="281.36 311.38 325.2 336.69 325.2 349.34 281.36 324.03 281.36 311.38"/><polygon class="cls-4" points="281.36 336.69 325.2 362 325.2 374.65 281.36 349.34 281.36 336.69"/><polygon class="cls-4" points="281.36 362 325.2 387.31 325.2 399.96 281.36 374.65 281.36 362"/><polygon class="cls-4" points="281.36 260.76 325.2 286.07 325.2 298.72 281.36 273.42 281.36 260.76"/><polygon class="cls-7" points="358.07 241.78 364.74 442.71 456.69 399.96 358.07 456.9 358.07 241.78"/><polygon class="cls-4" points="248.49 178.51 347.11 121.56 456.69 184.83 358.07 241.78 248.49 178.51"/><polygon class="cls-5" points="358.07 241.78 359.07 456.9 357.07 456.9 358.07 241.78"/><polygon class="cls-12" points="369.03 273.42 368.17 287.73 379.99 279.74 369.03 273.42"/><polygon class="cls-12" points="369.03 298.72 368.17 313.03 379.99 305.05 369.03 298.72"/><polygon class="cls-12" points="369.03 324.03 368.17 338.35 379.99 330.36 369.03 324.03"/><polygon class="cls-12" points="369.03 349.34 368.17 363.65 379.99 355.67 369.03 349.34"/><polygon class="cls-12" points="369.03 374.65 368.17 388.96 379.99 380.98 369.03 374.65"/><polygon class="cls-12" points="369.03 399.95 368.17 414.27 379.99 406.28 369.03 399.95"/><polygon class="cls-12" points="390.95 260.77 390.09 275.09 445.75 241.77 390.95 260.77"/><polygon class="cls-12" points="390.95 286.09 390.09 300.4 445.75 267.09 390.95 286.09"/><polygon class="cls-12" points="390.95 311.4 390.09 325.71 445.75 292.4 390.95 311.4"/><polygon class="cls-12" points="390.95 336.71 390.09 351.02 445.75 317.71 390.95 336.71"/><polygon class="cls-12" points="390.95 362.01 390.09 376.33 445.75 343.01 390.95 362.01"/><polygon class="cls-12" points="390.95 387.32 390.09 401.64 445.75 368.32 390.95 387.32"/><polygon class="cls-3" points="390.94 260.76 390.94 273.42 445.74 241.78 445.74 229.12 390.94 260.76"/><polygon class="cls-5" points="369.03 298.72 369.03 311.38 379.99 305.05 379.99 292.4 369.03 298.72"/><polygon class="cls-3" points="390.94 286.07 390.94 298.72 445.74 267.09 445.74 254.43 390.94 286.07"/><polygon class="cls-5" points="369.03 324.03 369.03 336.69 379.99 330.36 379.99 317.71 369.03 324.03"/><polygon class="cls-3" points="390.94 311.38 390.94 324.03 445.74 292.4 445.74 279.74 390.94 311.38"/><polygon class="cls-5" points="369.03 349.34 369.03 362 379.99 355.67 379.99 343.01 369.03 349.34"/><polygon class="cls-3" points="390.94 336.69 390.94 349.34 445.74 317.71 445.74 305.05 390.94 336.69"/><polygon class="cls-5" points="369.03 374.65 369.03 387.31 379.99 380.98 379.99 368.32 369.03 374.65"/><polygon class="cls-3" points="390.94 362 390.94 374.65 445.74 343.01 445.74 330.36 390.94 362"/><polygon class="cls-5" points="369.03 399.96 369.03 412.61 379.99 406.29 379.99 393.63 369.03 399.96"/><polygon class="cls-3" points="390.94 387.31 390.94 399.96 445.74 368.32 445.74 355.67 390.94 387.31"/><polygon class="cls-5" points="369.03 273.42 369.03 286.07 379.99 279.74 379.99 267.09 369.03 273.42"/><polygon class="cls-7" points="347.11 121.56 358.07 241.78 248.49 178.51 347.11 121.56"/><polygon class="cls-5" points="347.11 121.56 346.61 120.69 247.49 177.93 247.49 394.21 358.07 458.06 457.69 400.54 457.69 184.25 347.11 120.41 346.61 120.69 347.11 121.56 346.61 122.43 455.69 185.41 455.69 399.38 358.07 455.75 249.49 393.05 249.49 179.08 347.61 122.43 347.11 121.56 346.61 122.43 347.11 121.56"/><polygon class="cls-5" points="292.32 178.51 347.11 146.87 412.86 184.83 358.07 216.47 292.32 178.51"/><polygon class="cls-5" points="457.19 185.7 358.07 241.78 456.19 183.97 457.19 185.7"/><polygon class="cls-10" points="116.58 483.83 128.08 490.46 145.33 480.51 133.83 473.87 116.58 483.83"/><polygon class="cls-4" points="76.34 480.51 128.08 450.63 185.57 483.83 133.83 513.7 76.34 480.51"/><polygon class="cls-4" points="76.34 480.51 76.34 507.06 133.83 540.25 133.83 513.7 76.34 480.51"/><polygon class="cls-4" points="133.83 513.7 185.57 483.83 185.57 510.38 133.83 540.25 133.83 513.7"/><g class="cls-13"><polygon class="cls-7" points="185.57 510.38 136.67 535.53 133.83 513.7 133.83 540.25 185.57 510.38"/></g><polygon class="cls-3" points="76.34 480.51 76.34 507.06 133.83 540.25 133.83 513.7 76.34 480.51"/><polygon class="cls-12" points="139.58 517.02 139.09 524.38 145.33 520.34 139.58 517.02"/><polygon class="cls-12" points="167.42 500.95 166.93 508.31 173.17 504.27 167.42 500.95"/><polygon class="cls-12" points="174.07 497.1 173.58 504.46 179.82 500.42 174.07 497.1"/><polygon class="cls-5" points="139.58 517.02 139.58 523.66 145.33 520.34 145.33 513.7 139.58 517.02"/><polygon class="cls-3" points="179.82 493.78 179.82 500.42 174.07 503.74 174.07 497.1 179.82 493.78"/><polygon class="cls-3" points="173.17 497.62 173.17 504.26 167.43 507.58 167.43 500.94 173.17 497.62"/><polygon class="cls-4" points="82.09 490.46 82.09 497.1 87.84 500.42 87.84 493.78 82.09 490.46"/><polygon class="cls-7" points="128.08 450.63 133.83 513.7 76.34 480.51 128.08 450.63"/><polygon class="cls-5" points="99.34 480.51 128.08 463.91 162.58 483.83 133.83 500.42 99.34 480.51"/><polygon class="cls-5" points="185.95 484.48 133.83 513.7 185.2 483.18 185.95 484.48"/><polygon class="cls-5" points="133.32 540.25 133.83 513.7 134.35 540.25 133.32 540.25"/><polygon class="cls-5" points="128.08 450.63 127.83 450.19 75.83 480.21 75.83 507.36 133.83 540.85 186.08 510.68 186.09 483.53 128.08 450.04 127.83 450.19 128.08 450.63 127.83 451.08 185.06 484.12 185.06 510.08 133.83 539.66 76.86 506.76 76.86 480.8 128.34 451.08 128.08 450.63 127.83 451.08 128.08 450.63"/></svg>