<svg id="Layer_1" data-name="Layer 1" xmlns="http://www.w3.org/2000/svg" viewBox="0 0 700 700"><defs><style>.cls-1{fill:#fffafb;}.cls-2{fill:#fff;}.cls-3{fill:#ed3237;}.cls-4{fill:#f1f2f2;}.cls-5{fill:#414a4c;}.cls-6{fill:#6d6e71;}.cls-7{fill:#bcbec0;}.cls-8{fill:#d1d3d4;}.cls-9{fill:#e6e7e8;}</style></defs><title>illustration</title><polygon class="cls-1" points="653.11 525 653.11 175 350 0 46.89 175 46.89 525 350 700 653.11 525"/><polygon class="cls-2" points="601.56 428.96 594.32 474.95 355.33 612.95 116.34 474.95 109.1 428.96 601.56 428.96"/><polygon class="cls-3" points="355.33 571.13 355.33 612.95 116.34 474.95 109.1 428.96 355.33 571.13"/><polygon class="cls-2" points="109.1 428.96 355.33 286.78 601.56 428.96 355.33 571.13 109.1 428.96"/><polygon class="cls-4" points="594.32 474.95 355.33 571.13 355.33 612.95 594.32 474.95"/><polygon class="cls-2" points="148.93 280.51 148.93 355.78 94.61 387.14 94.61 311.87 148.93 280.51"/><polygon class="cls-2" points="89 383.9 94.61 387.14 94.61 311.87 148.93 280.51 142.74 276.94 89 308.63 89 383.9"/><polygon class="cls-3" points="89 308.63 94.61 311.87 94.61 387.14 89 383.9 89 308.63"/><polygon class="cls-2" points="148.93 280.51 94.61 311.87 147.81 279.86 148.93 280.51"/><polygon class="cls-4" points="94.61 311.87 148.93 355.78 94.61 387.14 94.61 311.87"/><polygon class="cls-5" points="142.74 276.94 142.24 276.08 88 308.06 88 384.48 94.61 388.3 149.93 356.36 149.93 279.93 142.74 275.78 142.24 276.08 142.74 276.94 142.24 277.8 147.93 281.09 147.93 355.2 94.61 385.99 90 383.32 90 309.2 143.25 277.8 142.74 276.94 142.24 277.8 142.74 276.94"/><polygon class="cls-5" points="103.73 315.92 103.73 373.16 139.81 351.33 139.81 317.12 120.73 306.1 103.73 315.92"/><polygon class="cls-6" points="120.73 306.1 123.13 325.74 139.81 317.12 120.73 306.1"/><polyline class="cls-2" points="107.56 336.52 123.85 327.11 123.35 326.25 107.06 335.65"/><polyline class="cls-2" points="107.56 342.85 134.81 327.11 134.31 326.25 107.06 341.98"/><polyline class="cls-2" points="107.56 349.06 134.81 333.33 134.31 332.46 107.06 348.2"/><polyline class="cls-2" points="107.56 355.39 134.81 339.66 134.31 338.79 107.06 354.53"/><polyline class="cls-2" points="107.56 361.36 134.81 345.62 134.31 344.75 107.06 360.49"/><polygon class="cls-5" points="149.43 281.38 94.61 311.87 148.43 279.64 149.43 281.38"/><polygon class="cls-2" points="148.93 180.15 148.93 255.42 94.61 286.78 94.61 211.51 148.93 180.15"/><polygon class="cls-2" points="89 283.54 94.61 286.78 94.61 211.51 148.93 180.15 142.74 176.58 89 208.27 89 283.54"/><polygon class="cls-3" points="89 208.27 94.61 211.51 94.61 286.78 89 283.54 89 208.27"/><polygon class="cls-2" points="148.93 180.15 94.61 211.51 147.81 179.5 148.93 180.15"/><polygon class="cls-4" points="94.61 211.51 148.93 255.42 94.61 286.78 94.61 211.51"/><polygon class="cls-5" points="142.74 176.58 142.24 175.72 88 207.7 88 284.12 94.61 287.94 149.93 256 149.93 179.57 142.74 175.42 142.24 175.72 142.74 176.58 142.24 177.44 147.93 180.73 147.93 254.84 94.61 285.63 90 282.96 90 208.84 143.25 177.44 142.74 176.58 142.24 177.44 142.74 176.58"/><polygon class="cls-5" points="103.73 215.56 103.73 272.8 139.81 250.97 139.81 216.76 120.73 205.75 103.73 215.56"/><polygon class="cls-6" points="120.73 205.75 123.13 225.38 139.81 216.76 120.73 205.75"/><polyline class="cls-2" points="107.56 236.16 123.85 226.75 123.35 225.89 107.06 235.29"/><polyline class="cls-2" points="107.56 242.49 134.81 226.75 134.31 225.89 107.06 241.62"/><polyline class="cls-2" points="107.56 248.71 134.81 232.97 134.31 232.1 107.06 247.84"/><polyline class="cls-2" points="107.56 255.03 134.81 239.3 134.31 238.43 107.06 254.17"/><polyline class="cls-2" points="107.56 261 134.81 245.26 134.31 244.39 107.06 260.13"/><polygon class="cls-5" points="149.43 181.02 94.61 211.51 148.43 179.28 149.43 181.02"/><polygon class="cls-4" points="286.68 346.25 464.51 575.31 286.68 472.63 286.68 346.25"/><polygon class="cls-5" points="602.06 429.82 355.33 571.78 601.06 428.09 602.06 429.82"/><polygon class="cls-4" points="355.33 286.78 355.33 518.63 355.33 571.13 109.1 428.96 355.33 286.78"/><polygon class="cls-5" points="138.07 424.77 159.79 437.32 181.52 424.77 159.79 412.23 138.07 424.77"/><polygon class="cls-2" points="138.07 424.77 138.07 431.05 159.79 443.59 181.52 431.05 181.52 424.77 159.79 437.32 138.07 424.77"/><polygon class="cls-4" points="138.07 424.77 138.07 431.05 159.79 443.59 181.52 431.05 159.79 437.32 138.07 424.77"/><polygon class="cls-5" points="159.79 412.23 159.29 411.36 137.07 424.2 137.07 431.62 159.79 444.75 182.52 431.62 182.52 424.2 159.79 411.07 159.29 411.36 159.79 412.23 159.29 413.1 180.52 425.35 180.52 430.47 159.79 442.44 139.07 430.47 139.07 425.35 160.29 413.1 159.79 412.23 159.29 413.1 159.79 412.23"/><polygon class="cls-5" points="158.79 443.59 159.79 437.32 160.79 443.59 158.79 443.59"/><polygon class="cls-5" points="328.27 534.54 350 547.09 371.73 534.54 350 522 328.27 534.54"/><polygon class="cls-2" points="328.27 534.54 328.27 540.81 350 553.36 371.73 540.81 371.73 534.54 350 547.09 328.27 534.54"/><polygon class="cls-4" points="328.27 534.54 328.27 540.81 350 553.36 371.73 540.81 350 547.09 328.27 534.54"/><polygon class="cls-5" points="350 522 349.5 521.13 327.27 533.96 327.27 541.39 350 554.51 372.73 541.39 372.73 533.96 350 520.84 349.5 521.13 350 522 349.5 522.86 370.73 535.12 370.73 540.24 350 552.2 329.27 540.24 329.27 535.12 350.5 522.86 350 522 349.5 522.86 350 522"/><polygon class="cls-5" points="349 553.36 350 547.09 351 553.36 349 553.36"/><polygon class="cls-5" points="523.64 421.64 545.37 434.18 567.09 421.64 545.37 409.09 523.64 421.64"/><polygon class="cls-2" points="523.64 421.64 523.64 427.91 545.37 440.46 567.09 427.91 567.09 421.64 545.37 434.18 523.64 421.64"/><polygon class="cls-4" points="523.64 421.64 523.64 427.91 545.37 440.46 567.09 427.91 545.37 434.18 523.64 421.64"/><polygon class="cls-5" points="545.37 409.09 544.87 408.23 522.64 421.06 522.64 428.49 545.37 441.61 568.09 428.49 568.09 421.06 545.37 407.94 544.87 408.23 545.37 409.09 544.87 409.96 566.09 422.22 566.09 427.33 545.37 439.3 524.64 427.33 524.64 422.22 545.87 409.96 545.37 409.09 544.87 409.96 545.37 409.09"/><polygon class="cls-5" points="544.37 440.46 545.37 434.18 546.37 440.46 544.37 440.46"/><polygon class="cls-3" points="333.6 311.87 355.33 324.42 377.06 311.87 355.33 299.33 333.6 311.87"/><polygon class="cls-2" points="333.6 311.87 333.6 318.14 355.33 330.69 377.06 318.14 377.06 311.87 355.33 324.42 333.6 311.87"/><polygon class="cls-4" points="333.6 311.87 333.6 318.14 355.33 330.69 377.06 318.14 355.33 324.42 333.6 311.87"/><polygon class="cls-5" points="355.33 299.33 354.83 298.46 332.6 311.29 332.6 318.72 355.33 331.84 378.06 318.72 378.06 311.29 355.33 298.17 354.83 298.46 355.33 299.33 354.83 300.19 376.06 312.45 376.06 317.57 355.33 329.53 334.6 317.57 334.6 312.45 355.83 300.19 355.33 299.33 354.83 300.19 355.33 299.33"/><polygon class="cls-5" points="354.33 330.69 355.33 324.42 356.33 330.69 354.33 330.69"/><polygon class="cls-5" points="355.33 286.78 354.83 285.92 108 428.43 115.42 475.58 355.33 614.1 595.23 475.58 602.66 428.43 355.33 285.63 354.83 285.92 355.33 286.78 354.83 287.65 600.47 429.48 593.41 474.33 355.33 611.79 117.25 474.33 110.19 429.48 355.83 287.65 355.33 286.78 354.83 287.65 355.33 286.78"/><polygon class="cls-2" points="240.67 333.45 523.11 496.53 523.11 295.81 240.67 132.73 240.67 333.45"/><polygon class="cls-5" points="512.25 302.09 512.25 314.63 501.38 308.36 501.38 295.81 512.25 302.09"/><polygon class="cls-5" points="490.52 289.54 490.52 302.09 479.66 295.81 479.66 283.27 490.52 289.54"/><polygon class="cls-5" points="468.79 277 468.79 289.54 457.93 283.27 457.93 270.72 468.79 277"/><polygon class="cls-2" points="240.67 132.73 251.53 126.46 533.97 289.54 533.97 490.26 523.11 496.53 523.11 295.81 240.67 132.73"/><polygon class="cls-3" points="533.97 289.54 533.97 490.94 523.11 497.21 523.11 295.81 533.97 289.54"/><polygon class="cls-4" points="523.11 496.53 240.67 132.73 240.67 333.45 523.11 496.53"/><polygon class="cls-5" points="251.53 126.46 251.03 125.59 239.67 132.15 239.67 334.02 523.11 497.69 534.97 490.84 534.97 288.96 251.53 125.3 251.03 125.59 251.53 126.46 251.03 127.32 532.97 290.12 532.97 489.68 523.11 495.38 241.67 332.87 241.67 133.31 252.03 127.32 251.53 126.46 251.03 127.32 251.53 126.46"/><polygon class="cls-3" points="512.25 327.18 512.25 477.71 251.53 327.18 251.53 176.64 512.25 327.18"/><polygon class="cls-2" points="268.42 205.24 268.42 217.78 415.08 302.46 415.08 289.92 268.42 205.24"/><polygon class="cls-2" points="268.42 230.33 268.42 242.88 436.99 340.2 436.8 327.55 268.42 230.33"/><polygon class="cls-2" points="268.42 255.42 268.42 267.96 463.96 380.87 463.96 368.32 268.42 255.42"/><polygon class="cls-2" points="268.42 280.51 268.42 293.05 496.55 424.77 496.55 412.23 268.42 280.51"/><polygon class="cls-2" points="268.42 305.6 268.42 318.14 496.55 449.86 496.55 437.32 268.42 305.6"/><polygon class="cls-2" points="188.26 353.45 366.09 456.14 366.09 329.76 188.26 227.08 188.26 353.45"/><polygon class="cls-2" points="188.26 227.08 195.1 223.13 372.93 325.81 372.93 452.19 366.09 456.14 366.09 329.76 188.26 227.08"/><polygon class="cls-3" points="372.93 325.81 372.93 452.19 366.09 456.14 366.09 329.76 372.93 325.81"/><polygon class="cls-4" points="188.26 227.08 366.09 456.14 188.26 353.45 188.26 227.08"/><polygon class="cls-3" points="199.12 247.52 199.12 347.88 351.2 435.69 351.2 335.33 199.12 247.52"/><polygon class="cls-2" points="209.49 268.07 209.49 344.2 329.74 413.63 331.24 411.04 212.49 342.47 212.49 268.07 209.49 268.07 209.49 268.07"/><polygon class="cls-2" points="223.3 339.83 254.23 321.96 273.04 360.69 323.2 344.66 322.28 341.81 274.61 357.04 255.52 317.75 221.8 337.23 223.3 339.83 223.3 339.83"/><circle class="cls-2" cx="322.74" cy="343.23" r="3.08"/><circle class="cls-2" cx="273.82" cy="358.86" r="3.08"/><circle class="cls-2" cx="254.88" cy="320.35" r="3.08"/><polygon class="cls-5" points="195.1 223.13 194.6 222.26 187.26 226.5 187.26 354.03 366.09 457.29 373.93 452.76 373.93 325.23 195.1 221.97 194.6 222.26 195.1 223.13 194.6 223.99 371.93 326.39 371.93 451.61 366.09 454.98 189.26 352.88 189.26 227.65 195.6 223.99 195.1 223.13 194.6 223.99 195.1 223.13"/><polygon class="cls-5" points="188.76 226.21 366.09 329.76 187.76 227.94 188.76 226.21"/><polygon class="cls-2" points="286.68 472.63 464.51 575.31 464.51 448.94 286.68 346.25 286.68 472.63"/><polygon class="cls-2" points="286.68 346.25 293.52 342.3 471.35 444.99 471.35 571.36 464.51 575.31 464.51 448.94 286.68 346.25"/><polygon class="cls-3" points="471.35 444.99 471.35 571.36 464.51 575.31 464.51 448.93 471.35 444.99"/><polygon class="cls-5" points="293.52 342.3 293.02 341.44 285.68 345.68 285.68 473.21 464.51 576.47 472.35 571.94 472.35 444.41 293.52 341.15 293.02 341.44 293.52 342.3 293.02 343.17 470.35 445.56 470.35 570.79 464.51 574.16 287.68 472.05 287.68 346.83 294.02 343.17 293.52 342.3 293.02 343.17 293.52 342.3"/><polygon class="cls-3" points="297.54 366.7 297.54 467.06 449.62 554.87 449.62 454.51 297.54 366.7"/><polygon class="cls-2" points="402.87 468.68 412.44 474.21 417.23 488.05 402.85 479.74 402.87 468.68"/><polygon class="cls-7" points="426.81 484.96 402.85 471.11 402.85 476.63 426.81 490.45 426.81 484.96"/><polygon class="cls-8" points="425.86 486.51 401.9 472.65 401.9 478.18 425.86 492 425.86 486.51"/><polygon class="cls-9" points="424.42 487.3 400.46 473.44 400.46 478.96 424.42 492.78 424.42 487.3"/><polygon class="cls-2" points="431.59 482.23 441.17 487.69 441.15 520.87 398.08 495.98 398.08 473.87 422.02 487.7 431.59 482.23"/><polygon class="cls-4" points="398.08 473.87 441.15 520.87 398.08 495.98 398.08 473.87"/><polygon class="cls-2" points="356.73 442.58 366.31 448.12 371.1 461.95 356.72 453.64 356.73 442.58"/><polygon class="cls-7" points="380.67 458.87 356.72 445.01 356.72 450.53 380.67 464.36 380.67 458.87"/><polygon class="cls-8" points="379.73 460.42 355.77 446.56 355.77 452.08 379.73 465.9 379.73 460.42"/><polygon class="cls-9" points="378.29 461.2 354.33 447.35 354.33 452.87 378.29 466.69 378.29 461.2"/><polygon class="cls-2" points="385.46 456.13 395.04 461.59 395.02 494.78 351.94 469.89 351.94 447.77 375.88 461.61 385.46 456.13"/><polygon class="cls-4" points="351.94 447.77 395.02 494.78 351.94 469.89 351.94 447.77"/><polygon class="cls-2" points="310.79 416.72 320.37 422.25 325.15 436.08 310.77 427.78 310.79 416.72"/><polygon class="cls-7" points="334.73 433 310.77 419.14 310.77 424.67 334.73 438.49 334.73 433"/><polygon class="cls-8" points="333.78 434.55 309.83 420.69 309.83 426.21 333.78 440.04 333.78 434.55"/><polygon class="cls-9" points="332.34 435.33 308.39 421.48 308.39 427 332.34 440.82 332.34 435.33"/><polygon class="cls-2" points="339.52 430.26 349.09 435.72 349.08 468.91 306 444.02 306 421.91 329.94 435.74 339.52 430.26"/><polygon class="cls-4" points="306 421.91 349.08 468.91 306 444.02 306 421.91"/><polygon class="cls-5" points="523.11 295.81 240.17 133.6 241.17 131.87 523.11 295.81"/><polygon class="cls-5" points="287.18 345.39 464.51 448.94 286.18 347.12 287.18 345.39"/><polygon class="cls-2" points="626.67 217.84 626.67 293.11 572.35 324.48 572.35 249.21 626.67 217.84"/><polygon class="cls-2" points="566.74 321.23 572.35 324.48 572.35 249.21 626.67 217.84 620.48 214.27 566.74 245.97 566.74 321.23"/><polygon class="cls-3" points="566.74 245.96 572.35 249.2 572.35 324.47 566.74 321.23 566.74 245.96"/><polygon class="cls-2" points="626.67 217.84 572.35 249.2 625.55 217.19 626.67 217.84"/><polygon class="cls-4" points="572.35 249.21 626.67 293.11 572.35 324.48 572.35 249.21"/><polygon class="cls-5" points="620.48 214.27 619.98 213.41 565.74 245.39 565.74 321.81 572.35 325.63 627.67 293.69 627.67 217.27 620.48 213.12 619.98 213.41 620.48 214.27 619.98 215.14 625.67 218.42 625.67 292.54 572.35 323.32 567.74 320.66 567.74 246.54 620.99 215.13 620.48 214.27 619.98 215.14 620.48 214.27"/><polygon class="cls-5" points="581.47 253.25 581.47 310.5 617.55 288.66 617.55 254.46 598.47 243.44 581.47 253.25"/><polygon class="cls-6" points="598.47 243.44 600.87 263.07 617.55 254.46 598.47 243.44"/><polyline class="cls-2" points="585.3 273.85 601.59 264.45 601.09 263.58 584.8 272.99"/><polyline class="cls-2" points="585.3 280.18 612.55 264.45 612.05 263.58 584.8 279.32"/><polyline class="cls-2" points="585.3 286.4 612.55 270.66 612.05 269.8 584.8 285.53"/><polyline class="cls-2" points="585.3 292.73 612.55 276.99 612.05 276.13 584.8 291.86"/><polyline class="cls-2" points="585.3 298.69 612.55 282.95 612.05 282.09 584.8 297.82"/><polygon class="cls-5" points="627.17 218.71 572.35 249.21 626.17 216.98 627.17 218.71"/><polygon class="cls-2" points="626.67 318.2 626.67 393.47 572.35 424.83 572.35 349.56 626.67 318.2"/><polygon class="cls-2" points="566.74 421.59 572.35 424.83 572.35 349.56 626.67 318.2 620.48 314.63 566.74 346.32 566.74 421.59"/><polygon class="cls-3" points="566.74 346.32 572.35 349.56 572.35 424.83 566.74 421.59 566.74 346.32"/><polygon class="cls-2" points="626.67 318.2 572.35 349.56 625.55 317.55 626.67 318.2"/><polygon class="cls-4" points="572.35 349.56 626.67 393.47 572.35 424.83 572.35 349.56"/><polygon class="cls-5" points="620.48 314.63 619.98 313.77 565.74 345.75 565.74 422.17 572.35 425.99 627.67 394.05 627.67 317.63 620.48 313.47 619.98 313.77 620.48 314.63 619.98 315.5 625.67 318.78 625.67 392.89 572.35 423.68 567.74 421.01 567.74 346.89 620.99 315.49 620.48 314.63 619.98 315.5 620.48 314.63"/><polygon class="cls-5" points="581.47 353.61 581.47 410.86 617.55 389.02 617.55 354.81 598.47 343.8 581.47 353.61"/><polygon class="cls-6" points="598.47 343.8 600.87 363.43 617.55 354.81 598.47 343.8"/><polyline class="cls-2" points="585.3 374.21 601.59 364.8 601.09 363.94 584.8 373.35"/><polyline class="cls-2" points="585.3 380.54 612.55 364.8 612.05 363.94 584.8 379.68"/><polyline class="cls-2" points="585.3 386.76 612.55 371.02 612.05 370.15 584.8 385.89"/><polyline class="cls-2" points="585.3 393.09 612.55 377.35 612.05 376.48 584.8 392.22"/><polyline class="cls-2" points="585.3 399.05 612.55 383.31 612.05 382.45 584.8 398.18"/><polygon class="cls-5" points="627.17 319.07 572.35 349.56 626.17 317.34 627.17 319.07"/></svg>