<svg id="Layer_1" data-name="Layer 1" xmlns="http://www.w3.org/2000/svg" viewBox="0 0 700 700"><defs><style>.cls-1{fill:#fffafb;}.cls-2{fill:#fff;}.cls-3{fill:#ed3237;}.cls-4{fill:#f1f2f2;}.cls-5{fill:#bc1016;}.cls-6{fill:#e1141a;}.cls-7{fill:#f0565b;}.cls-8{fill:#414a4c;}.cls-9{fill:#6d6e71;}</style></defs><title>illustration</title><polygon class="cls-1" points="653.11 525 653.11 175 350 0 46.89 175 46.89 525 350 700 653.11 525"/><polygon class="cls-2" points="595.3 438.7 588.04 484.82 348.43 623.17 108.82 484.82 101.56 438.7 595.3 438.7"/><polygon class="cls-3" points="348.43 581.25 348.43 623.17 108.82 484.83 101.55 438.71 348.43 581.25"/><polygon class="cls-2" points="101.56 438.7 348.43 296.16 595.3 438.7 348.43 581.25 101.56 438.7"/><polygon class="cls-4" points="595.3 438.71 101.55 438.71 348.43 296.15 595.3 438.71"/><path class="cls-5" d="M345.2,497.45v6.34c-64.84,0-117.4-28.17-117.4-62.94,0-1.06,0-2.11.15-3.16C231,471,282.34,497.45,345.2,497.45Z"/><path class="cls-5" d="M345.2,387.6v6.34c-46.35,0-84.28,19.32-87.31,43.75a24.06,24.06,0,0,1-.2-3.17C257.69,408.6,296.87,387.6,345.2,387.6Z"/><path class="cls-6" d="M257.69,434.51a24.06,24.06,0,0,0,.2,3.17c3,24.44,41,43.75,87.31,43.75v16C282.34,497.45,231,471,228,437.68c-.1-1.05-.15-2.11-.15-3.17,0-34.76,52.56-62.93,117.4-62.93v16C296.87,387.6,257.69,408.6,257.69,434.51Z"/><path class="cls-6" d="M435.95,427.19v13.66c0-25.9-39.18-46.91-87.52-46.91V380.28C396.76,380.28,435.95,401.28,435.95,427.19Z"/><path class="cls-3" d="M465.83,427.19H435.95c0-25.9-39.18-46.91-87.52-46.91v-16C413.27,364.26,465.83,392.43,465.83,427.19Z"/><path class="cls-7" d="M465.83,410.56c0,11-5.25,21.3-14.46,30.29A87.31,87.31,0,0,1,432,454.74c-21.29,11.58-50.89,18.76-83.61,18.76v-16c48.33,0,87.52-21,87.52-46.92Z"/><path class="cls-3" d="M465.83,410.56v30.29c0,34.77-52.56,62.94-117.4,62.94V473.5c32.72,0,62.31-7.17,83.61-18.76a87.31,87.31,0,0,0,19.33-13.9C460.58,431.86,465.83,421.54,465.83,410.56Z"/><polygon class="cls-2" points="363.75 286.94 603.74 425.51 603.74 254.96 363.75 116.4 363.75 286.94"/><polygon class="cls-2" points="363.75 116.4 372.98 111.07 612.97 249.63 612.97 420.18 603.74 425.51 603.74 254.96 363.75 116.4"/><polygon class="cls-3" points="612.97 249.63 612.97 420.18 603.74 425.5 603.74 254.97 612.97 249.63"/><polygon class="cls-2" points="157.92 211.31 348.43 101.21 348.43 277.61 157.92 387.4 157.92 211.31"/><polygon class="cls-2" points="348.43 101.21 342.75 98.2 152.38 208.12 157.92 211.31 348.43 101.21"/><polygon class="cls-3" points="157.92 387.4 152.38 384.2 152.38 208.12 157.92 211.31 157.92 387.4"/><polygon class="cls-2" points="146.79 218.31 146.79 292.95 92.93 324.06 92.93 249.41 146.79 218.31"/><polygon class="cls-2" points="87.36 320.84 92.93 324.06 92.93 249.41 146.79 218.31 140.66 214.77 87.36 246.2 87.36 320.84"/><polygon class="cls-3" points="87.36 246.19 92.92 249.41 92.92 324.06 87.36 320.84 87.36 246.19"/><polygon class="cls-2" points="146.79 218.31 92.92 249.41 145.68 217.66 146.79 218.31"/><polygon class="cls-4" points="92.93 249.41 146.79 292.95 92.93 324.06 92.93 249.41"/><polygon class="cls-8" points="140.66 214.77 140.15 213.91 86.37 245.63 86.37 321.41 92.93 325.2 147.78 293.53 147.78 217.74 140.65 213.62 140.15 213.91 140.66 214.77 140.16 215.63 145.8 218.88 145.8 292.38 92.92 322.91 88.35 320.27 88.35 246.76 141.16 215.62 140.66 214.77 140.16 215.63 140.66 214.77"/><polygon class="cls-8" points="101.96 253.43 101.96 310.19 137.75 288.54 137.75 254.62 118.83 243.69 101.96 253.43"/><polygon class="cls-9" points="118.83 243.69 121.21 263.16 137.75 254.62 118.83 243.69"/><polyline class="cls-2" points="105.76 273.86 121.92 264.52 121.43 263.67 105.27 273"/><polyline class="cls-2" points="105.76 280.13 132.79 264.52 132.3 263.67 105.27 279.27"/><polyline class="cls-2" points="105.76 286.3 132.79 270.69 132.3 269.83 105.27 285.44"/><polyline class="cls-2" points="105.76 292.57 132.79 276.96 132.3 276.11 105.27 291.71"/><polyline class="cls-2" points="105.76 298.49 132.79 282.88 132.3 282.02 105.27 297.63"/><polygon class="cls-8" points="147.29 219.17 92.93 249.41 146.3 217.45 147.29 219.17"/><polygon class="cls-2" points="146.79 317.84 146.79 392.48 92.93 423.58 92.93 348.94 146.79 317.84"/><polygon class="cls-2" points="87.36 420.37 92.93 423.58 92.93 348.94 146.79 317.84 140.66 314.29 87.36 345.72 87.36 420.37"/><polygon class="cls-3" points="87.36 345.72 92.92 348.94 92.92 423.58 87.36 420.37 87.36 345.72"/><polygon class="cls-2" points="146.79 317.83 92.92 348.94 145.68 317.19 146.79 317.83"/><polygon class="cls-4" points="92.93 348.94 146.79 392.48 92.93 423.58 92.93 348.94"/><polygon class="cls-8" points="140.66 314.29 140.15 313.44 86.37 345.16 86.37 420.94 92.92 424.73 147.78 393.05 147.78 317.26 140.65 313.14 140.15 313.44 140.66 314.29 140.16 315.15 145.8 318.41 145.8 391.91 92.92 422.44 88.35 419.8 88.35 346.29 141.16 315.15 140.66 314.29 140.16 315.15 140.66 314.29"/><polygon class="cls-8" points="101.96 352.95 101.96 409.72 137.75 388.07 137.75 354.14 118.83 343.22 101.96 352.95"/><polygon class="cls-9" points="118.83 343.22 121.21 362.69 137.75 354.14 118.83 343.22"/><polyline class="cls-2" points="105.76 373.38 121.92 364.05 121.43 363.19 105.27 372.52"/><polyline class="cls-2" points="105.76 379.66 132.79 364.05 132.3 363.19 105.27 378.8"/><polyline class="cls-2" points="105.76 385.82 132.79 370.22 132.3 369.36 105.27 384.96"/><polyline class="cls-2" points="105.76 392.1 132.79 376.49 132.3 375.63 105.27 391.24"/><polyline class="cls-2" points="105.76 398.01 132.79 382.4 132.3 381.55 105.27 397.15"/><polygon class="cls-8" points="147.29 318.69 92.93 348.94 146.3 316.98 147.29 318.69"/><polygon class="cls-8" points="130.6 434.51 152.38 447.09 174.16 434.51 152.38 421.93 130.6 434.51"/><polygon class="cls-2" points="130.6 434.51 130.6 440.8 152.38 453.38 174.16 440.8 174.16 434.51 152.38 447.09 130.6 434.51"/><polygon class="cls-4" points="152.38 453.38 130.6 440.8 130.6 434.52 152.38 447.08 152.38 453.38"/><polygon class="cls-4" points="174.16 440.8 152.38 447.09 152.38 453.38 174.16 440.8"/><polygon class="cls-8" points="151.38 453.38 152.38 447.09 153.38 453.38 151.38 453.38"/><polygon class="cls-8" points="152.38 421.93 151.88 421.07 129.6 433.93 129.6 441.38 152.38 454.53 175.16 441.38 175.16 433.93 152.38 420.78 151.88 421.07 152.38 421.93 151.88 422.8 173.16 435.09 173.16 440.22 152.38 452.22 131.6 440.22 131.6 435.09 152.88 422.8 152.38 421.93 151.88 422.8 152.38 421.93"/><polygon class="cls-8" points="321.21 543.52 342.99 556.1 364.77 543.52 342.99 530.94 321.21 543.52"/><polygon class="cls-2" points="321.21 543.52 321.21 549.81 342.99 562.38 364.77 549.81 364.77 543.52 342.99 556.1 321.21 543.52"/><polygon class="cls-4" points="342.99 562.38 321.21 549.8 321.21 543.52 342.99 556.09 342.99 562.38"/><polygon class="cls-4" points="364.77 549.81 342.99 556.1 342.99 562.38 364.77 549.81"/><polygon class="cls-8" points="341.99 562.38 342.99 556.1 343.99 562.38 341.99 562.38"/><polygon class="cls-8" points="342.99 530.94 342.49 530.07 320.21 542.94 320.21 550.38 342.99 563.54 365.77 550.38 365.77 542.94 342.99 529.78 342.49 530.07 342.99 530.94 342.49 531.81 363.77 544.1 363.77 549.23 342.99 561.23 322.2 549.23 322.2 544.1 343.49 531.81 342.99 530.94 342.49 531.81 342.99 530.94"/><polygon class="cls-4" points="588.04 484.82 348.43 581.25 348.43 623.17 588.04 484.82"/><polygon class="cls-8" points="595.8 439.57 348.43 581.25 594.8 437.84 595.8 439.57"/><polygon class="cls-8" points="595.3 438.7 595.8 437.84 348.43 295 100.43 438.2 100.58 438.9 101.56 438.71 102 437.81 102 437.81 100.26 436.94 104.84 466 107.9 485.43 108.29 485.67 108.82 484.82 107.82 484.82 107.82 484.83 107.82 485.4 349.43 624.91 349.43 623.75 588.96 485.45 596.4 438.18 595.8 437.84 595.3 438.7 594.32 438.55 587.13 484.19 347.43 622.6 347.43 623.17 348.43 623.17 348.93 622.31 109.32 483.96 108.82 484.83 109.82 484.83 109.82 484.82 109.82 484.27 109.73 484.21 106.82 465.69 102.54 438.55 101.55 438.71 101.1 439.6 101.11 439.6 102.94 440.52 102.68 439.21 348.43 297.31 594.8 439.57 595.3 438.7 594.32 438.55 595.3 438.7"/><polygon class="cls-4" points="157.92 211.31 348.43 277.61 157.92 387.4 157.92 211.31"/><polygon class="cls-3" points="168.11 213.91 168.11 371.82 338.09 274.32 338.09 116.78 168.11 213.91"/><polygon class="cls-2" points="191.82 285.94 191.82 337.6 218.66 322.1 218.13 270.75 191.82 285.94"/><polygon class="cls-2" points="236.56 311.77 263.39 296.27 263.39 223.96 236.56 239.45 236.56 311.77"/><polygon class="cls-2" points="280.99 286.11 313.42 267.71 313.42 164.09 280.99 182.82 280.99 286.11"/><polygon class="cls-8" points="342.75 98.2 342.25 97.33 151.38 207.54 151.38 384.78 157.92 388.55 349.43 278.19 349.43 100.6 342.73 97.05 342.25 97.33 342.75 98.2 342.28 99.08 347.43 101.81 347.43 277.03 157.92 386.24 153.38 383.62 153.38 208.69 343.25 99.06 342.75 98.2 342.28 99.08 342.75 98.2"/><polygon class="cls-4" points="363.75 116.4 603.74 425.51 363.75 286.94 363.75 116.4"/><polygon class="cls-3" points="378.41 143.99 378.41 279.42 583.65 397.92 583.65 262.49 378.41 143.99"/><polygon class="cls-2" points="392.93 171.72 392.93 274.16 554.94 367.7 556.44 365.1 395.93 272.42 395.93 171.72 392.93 171.72 392.93 171.72"/><polygon class="cls-2" points="410.78 268.1 453.01 243.71 478.44 296.06 545.69 274.58 544.78 271.72 480 292.41 454.3 239.5 409.28 265.5 410.78 268.1 410.78 268.1"/><circle class="cls-2" cx="545.24" cy="273.15" r="4.16"/><circle class="cls-2" cx="479.22" cy="294.24" r="4.16"/><circle class="cls-2" cx="453.66" cy="242.26" r="4.16"/><polygon class="cls-8" points="372.98 111.07 372.48 110.2 362.75 115.82 362.75 287.52 603.74 426.66 613.97 420.75 613.97 249.06 372.98 109.91 372.48 110.2 372.98 111.07 372.48 111.94 611.97 250.21 611.97 419.6 603.74 424.35 364.75 286.36 364.75 116.98 373.48 111.94 372.98 111.07 372.48 111.94 372.98 111.07"/><polygon class="cls-8" points="603.74 254.97 363.25 117.26 364.25 115.53 603.74 254.97"/><polygon class="cls-8" points="157.92 211.31 347.93 100.34 348.93 102.07 157.92 211.31"/><polygon class="cls-8" points="517.18 431.37 538.96 443.94 560.74 431.37 538.96 418.79 517.18 431.37"/><polygon class="cls-2" points="517.18 431.37 517.18 437.65 538.96 450.23 560.74 437.65 560.74 431.37 538.96 443.94 517.18 431.37"/><polygon class="cls-4" points="538.96 450.23 517.18 437.65 517.18 431.37 538.96 443.94 538.96 450.23"/><polygon class="cls-4" points="560.74 437.65 538.96 443.94 538.96 450.23 560.74 437.65"/><polygon class="cls-8" points="537.96 450.23 538.96 443.94 539.96 450.23 537.96 450.23"/><polygon class="cls-8" points="538.96 418.79 538.46 417.92 516.18 430.79 516.18 438.23 538.96 451.39 561.74 438.23 561.74 430.79 538.96 417.63 538.46 417.92 538.96 418.79 538.46 419.65 559.74 431.94 559.74 437.08 538.96 449.08 518.18 437.08 518.18 431.94 539.46 419.65 538.96 418.79 538.46 419.65 538.96 418.79"/><polygon class="cls-8" points="326.64 322.06 348.43 334.63 370.21 322.06 348.43 309.48 326.64 322.06"/><polygon class="cls-2" points="326.64 322.06 326.64 328.35 348.43 340.92 370.21 328.35 370.21 322.06 348.43 334.63 326.64 322.06"/><polygon class="cls-4" points="348.42 340.92 326.64 328.34 326.64 322.06 348.42 334.63 348.42 340.92"/><polygon class="cls-4" points="370.21 328.35 348.43 334.63 348.43 340.92 370.21 328.35"/><polygon class="cls-8" points="347.43 340.92 348.43 334.63 349.43 340.92 347.43 340.92"/><polygon class="cls-8" points="348.43 309.48 347.93 308.61 325.64 321.48 325.64 328.92 348.43 342.08 371.21 328.92 371.21 321.48 348.43 308.32 347.93 308.61 348.43 309.48 347.93 310.35 369.21 322.63 369.21 327.77 348.43 339.77 327.64 327.77 327.64 322.63 348.93 310.35 348.43 309.48 347.93 310.35 348.43 309.48"/></svg>