<svg width="488" height="156" viewBox="0 0 488 156" fill="none" xmlns="http://www.w3.org/2000/svg">
<rect width="488" height="156" rx="10" fill="#ED3237"/>
<path d="M63.4313 38.2H70.2713C72.0473 38.2 73.6153 38.56 74.9753 39.28C76.3353 39.984 77.3913 40.976 78.1433 42.256C78.8953 43.52 79.2713 44.968 79.2713 46.6C79.2713 48.232 78.8953 49.688 78.1433 50.968C77.3913 52.232 76.3353 53.224 74.9753 53.944C73.6153 54.648 72.0473 55 70.2713 55H63.4313V38.2ZM70.1753 53.464C71.6473 53.464 72.9353 53.176 74.0393 52.6C75.1433 52.008 75.9993 51.2 76.6073 50.176C77.2153 49.136 77.5193 47.944 77.5193 46.6C77.5193 45.256 77.2153 44.072 76.6073 43.048C75.9993 42.008 75.1433 41.2 74.0393 40.624C72.9353 40.032 71.6473 39.736 70.1753 39.736H65.2073V53.464H70.1753ZM87.3154 42.28C88.9634 42.28 90.2274 42.696 91.1074 43.528C91.9874 44.344 92.4274 45.56 92.4274 47.176V55H90.7954V53.032C90.4114 53.688 89.8434 54.2 89.0914 54.568C88.3554 54.936 87.4754 55.12 86.4514 55.12C85.0434 55.12 83.9234 54.784 83.0914 54.112C82.2594 53.44 81.8434 52.552 81.8434 51.448C81.8434 50.376 82.2274 49.512 82.9954 48.856C83.7794 48.2 85.0194 47.872 86.7154 47.872H90.7234V47.104C90.7234 46.016 90.4194 45.192 89.8114 44.632C89.2034 44.056 88.3154 43.768 87.1474 43.768C86.3474 43.768 85.5794 43.904 84.8434 44.176C84.1074 44.432 83.4754 44.792 82.9474 45.256L82.1794 43.984C82.8194 43.44 83.5874 43.024 84.4834 42.736C85.3794 42.432 86.3234 42.28 87.3154 42.28ZM86.7154 53.776C87.6754 53.776 88.4994 53.56 89.1874 53.128C89.8754 52.68 90.3874 52.04 90.7234 51.208V49.144H86.7634C84.6034 49.144 83.5234 49.896 83.5234 51.4C83.5234 52.136 83.8034 52.72 84.3634 53.152C84.9234 53.568 85.7074 53.776 86.7154 53.776ZM103.704 54.232C103.384 54.52 102.984 54.744 102.504 54.904C102.04 55.048 101.552 55.12 101.04 55.12C99.8557 55.12 98.9437 54.8 98.3037 54.16C97.6637 53.52 97.3437 52.616 97.3437 51.448V43.816H95.0877V42.376H97.3437V39.616H99.0477V42.376H102.888V43.816H99.0477V51.352C99.0477 52.104 99.2317 52.68 99.5997 53.08C99.9837 53.464 100.528 53.656 101.232 53.656C101.584 53.656 101.92 53.6 102.24 53.488C102.576 53.376 102.864 53.216 103.104 53.008L103.704 54.232ZM111.222 42.28C112.87 42.28 114.134 42.696 115.014 43.528C115.894 44.344 116.334 45.56 116.334 47.176V55H114.702V53.032C114.318 53.688 113.75 54.2 112.998 54.568C112.262 54.936 111.382 55.12 110.358 55.12C108.95 55.12 107.83 54.784 106.998 54.112C106.166 53.44 105.75 52.552 105.75 51.448C105.75 50.376 106.134 49.512 106.902 48.856C107.686 48.2 108.926 47.872 110.622 47.872H114.63V47.104C114.63 46.016 114.326 45.192 113.718 44.632C113.11 44.056 112.222 43.768 111.054 43.768C110.254 43.768 109.486 43.904 108.75 44.176C108.014 44.432 107.382 44.792 106.854 45.256L106.086 43.984C106.726 43.44 107.494 43.024 108.39 42.736C109.286 42.432 110.23 42.28 111.222 42.28ZM110.622 53.776C111.582 53.776 112.406 53.56 113.094 53.128C113.782 52.68 114.294 52.04 114.63 51.208V49.144H110.67C108.51 49.144 107.43 49.896 107.43 51.4C107.43 52.136 107.71 52.72 108.27 53.152C108.83 53.568 109.614 53.776 110.622 53.776ZM127.243 42.376H128.947V55H127.243V42.376ZM128.107 39.616C127.755 39.616 127.459 39.496 127.219 39.256C126.979 39.016 126.859 38.728 126.859 38.392C126.859 38.072 126.979 37.792 127.219 37.552C127.459 37.312 127.755 37.192 128.107 37.192C128.459 37.192 128.755 37.312 128.995 37.552C129.235 37.776 129.355 38.048 129.355 38.368C129.355 38.72 129.235 39.016 128.995 39.256C128.755 39.496 128.459 39.616 128.107 39.616ZM137.073 55.12C136.049 55.12 135.065 54.976 134.121 54.688C133.193 54.384 132.465 54.008 131.937 53.56L132.705 52.216C133.233 52.632 133.897 52.976 134.697 53.248C135.497 53.504 136.329 53.632 137.193 53.632C138.345 53.632 139.193 53.456 139.737 53.104C140.297 52.736 140.577 52.224 140.577 51.568C140.577 51.104 140.425 50.744 140.121 50.488C139.817 50.216 139.433 50.016 138.969 49.888C138.505 49.744 137.889 49.608 137.121 49.48C136.097 49.288 135.273 49.096 134.649 48.904C134.025 48.696 133.489 48.352 133.041 47.872C132.609 47.392 132.393 46.728 132.393 45.88C132.393 44.824 132.833 43.96 133.713 43.288C134.593 42.616 135.817 42.28 137.385 42.28C138.201 42.28 139.017 42.392 139.833 42.616C140.649 42.824 141.321 43.104 141.849 43.456L141.105 44.824C140.065 44.104 138.825 43.744 137.385 43.744C136.297 43.744 135.473 43.936 134.913 44.32C134.369 44.704 134.097 45.208 134.097 45.832C134.097 46.312 134.249 46.696 134.553 46.984C134.873 47.272 135.265 47.488 135.729 47.632C136.193 47.76 136.833 47.896 137.648 48.04C138.657 48.232 139.465 48.424 140.073 48.616C140.681 48.808 141.201 49.136 141.633 49.6C142.065 50.064 142.281 50.704 142.281 51.52C142.281 52.624 141.817 53.504 140.889 54.16C139.977 54.8 138.705 55.12 137.073 55.12ZM151.712 37.192H153.416V55H151.712V37.192ZM158.157 42.376H159.861V55H158.157V42.376ZM159.021 39.616C158.669 39.616 158.373 39.496 158.133 39.256C157.893 39.016 157.773 38.728 157.773 38.392C157.773 38.072 157.893 37.792 158.133 37.552C158.373 37.312 158.669 37.192 159.021 37.192C159.373 37.192 159.669 37.312 159.909 37.552C160.149 37.776 160.269 38.048 160.269 38.368C160.269 38.72 160.149 39.016 159.909 39.256C159.669 39.496 159.373 39.616 159.021 39.616ZM169.283 48.664L166.307 51.4V55H164.603V37.192H166.307V49.264L173.843 42.376H175.955L170.555 47.536L176.459 55H174.371L169.283 48.664ZM189.493 49.216H178.933C179.029 50.528 179.533 51.592 180.445 52.408C181.357 53.208 182.509 53.608 183.901 53.608C184.685 53.608 185.405 53.472 186.061 53.2C186.717 52.912 187.285 52.496 187.765 51.952L188.725 53.056C188.165 53.728 187.461 54.24 186.613 54.592C185.781 54.944 184.861 55.12 183.853 55.12C182.557 55.12 181.405 54.848 180.397 54.304C179.405 53.744 178.629 52.976 178.069 52C177.509 51.024 177.229 49.92 177.229 48.688C177.229 47.456 177.493 46.352 178.021 45.376C178.565 44.4 179.301 43.64 180.229 43.096C181.173 42.552 182.229 42.28 183.397 42.28C184.565 42.28 185.613 42.552 186.541 43.096C187.469 43.64 188.197 44.4 188.725 45.376C189.253 46.336 189.517 47.44 189.517 48.688L189.493 49.216ZM183.397 43.744C182.181 43.744 181.157 44.136 180.325 44.92C179.509 45.688 179.045 46.696 178.933 47.944H187.885C187.773 46.696 187.301 45.688 186.469 44.92C185.653 44.136 184.629 43.744 183.397 43.744ZM202.651 55.12C201.627 55.12 200.643 54.976 199.699 54.688C198.771 54.384 198.043 54.008 197.515 53.56L198.283 52.216C198.811 52.632 199.475 52.976 200.275 53.248C201.075 53.504 201.907 53.632 202.771 53.632C203.923 53.632 204.771 53.456 205.315 53.104C205.875 52.736 206.155 52.224 206.155 51.568C206.155 51.104 206.003 50.744 205.699 50.488C205.395 50.216 205.011 50.016 204.547 49.888C204.083 49.744 203.467 49.608 202.699 49.48C201.675 49.288 200.851 49.096 200.227 48.904C199.603 48.696 199.067 48.352 198.619 47.872C198.187 47.392 197.971 46.728 197.971 45.88C197.971 44.824 198.411 43.96 199.291 43.288C200.171 42.616 201.395 42.28 202.963 42.28C203.779 42.28 204.595 42.392 205.411 42.616C206.227 42.824 206.899 43.104 207.427 43.456L206.683 44.824C205.643 44.104 204.403 43.744 202.963 43.744C201.875 43.744 201.051 43.936 200.491 44.32C199.947 44.704 199.675 45.208 199.675 45.832C199.675 46.312 199.827 46.696 200.131 46.984C200.451 47.272 200.843 47.488 201.307 47.632C201.771 47.76 202.411 47.896 203.227 48.04C204.235 48.232 205.043 48.424 205.651 48.616C206.259 48.808 206.779 49.136 207.211 49.6C207.643 50.064 207.859 50.704 207.859 51.52C207.859 52.624 207.395 53.504 206.467 54.16C205.555 54.8 204.283 55.12 202.651 55.12ZM215.425 42.28C217.073 42.28 218.337 42.696 219.217 43.528C220.097 44.344 220.537 45.56 220.537 47.176V55H218.905V53.032C218.521 53.688 217.953 54.2 217.201 54.568C216.465 54.936 215.585 55.12 214.561 55.12C213.153 55.12 212.033 54.784 211.201 54.112C210.369 53.44 209.953 52.552 209.953 51.448C209.953 50.376 210.337 49.512 211.105 48.856C211.889 48.2 213.129 47.872 214.825 47.872H218.833V47.104C218.833 46.016 218.529 45.192 217.921 44.632C217.313 44.056 216.425 43.768 215.257 43.768C214.457 43.768 213.689 43.904 212.953 44.176C212.217 44.432 211.585 44.792 211.057 45.256L210.289 43.984C210.929 43.44 211.697 43.024 212.593 42.736C213.489 42.432 214.433 42.28 215.425 42.28ZM214.825 53.776C215.785 53.776 216.609 53.56 217.297 53.128C217.985 52.68 218.497 52.04 218.833 51.208V49.144H214.873C212.713 49.144 211.633 49.896 211.633 51.4C211.633 52.136 211.913 52.72 212.473 53.152C213.033 53.568 213.817 53.776 214.825 53.776ZM225.165 37.192H226.869V55H225.165V37.192ZM236.026 42.28C237.674 42.28 238.938 42.696 239.818 43.528C240.698 44.344 241.138 45.56 241.138 47.176V55H239.506V53.032C239.122 53.688 238.554 54.2 237.802 54.568C237.066 54.936 236.186 55.12 235.162 55.12C233.754 55.12 232.634 54.784 231.802 54.112C230.97 53.44 230.554 52.552 230.554 51.448C230.554 50.376 230.938 49.512 231.706 48.856C232.49 48.2 233.73 47.872 235.426 47.872H239.434V47.104C239.434 46.016 239.13 45.192 238.522 44.632C237.914 44.056 237.026 43.768 235.858 43.768C235.058 43.768 234.29 43.904 233.554 44.176C232.818 44.432 232.186 44.792 231.658 45.256L230.89 43.984C231.53 43.44 232.298 43.024 233.194 42.736C234.09 42.432 235.034 42.28 236.026 42.28ZM235.426 53.776C236.386 53.776 237.21 53.56 237.898 53.128C238.586 52.68 239.098 52.04 239.434 51.208V49.144H235.474C233.314 49.144 232.234 49.896 232.234 51.4C232.234 52.136 232.514 52.72 233.074 53.152C233.634 53.568 234.418 53.776 235.426 53.776ZM257.334 37.192V55H255.702V52.504C255.19 53.352 254.51 54 253.662 54.448C252.83 54.896 251.886 55.12 250.83 55.12C249.646 55.12 248.574 54.848 247.614 54.304C246.654 53.76 245.902 53 245.358 52.024C244.814 51.048 244.542 49.936 244.542 48.688C244.542 47.44 244.814 46.328 245.358 45.352C245.902 44.376 246.654 43.624 247.614 43.096C248.574 42.552 249.646 42.28 250.83 42.28C251.854 42.28 252.774 42.496 253.59 42.928C254.422 43.344 255.102 43.96 255.63 44.776V37.192H257.334ZM250.974 53.608C251.854 53.608 252.646 53.408 253.35 53.008C254.07 52.592 254.63 52.008 255.03 51.256C255.446 50.504 255.654 49.648 255.654 48.688C255.654 47.728 255.446 46.872 255.03 46.12C254.63 45.368 254.07 44.792 253.35 44.392C252.646 43.976 251.854 43.768 250.974 43.768C250.078 43.768 249.27 43.976 248.55 44.392C247.846 44.792 247.286 45.368 246.87 46.12C246.47 46.872 246.27 47.728 246.27 48.688C246.27 49.648 246.47 50.504 246.87 51.256C247.286 52.008 247.846 52.592 248.55 53.008C249.27 53.408 250.078 53.608 250.974 53.608ZM265.463 55.12C264.439 55.12 263.455 54.976 262.511 54.688C261.583 54.384 260.855 54.008 260.327 53.56L261.095 52.216C261.623 52.632 262.287 52.976 263.087 53.248C263.887 53.504 264.719 53.632 265.583 53.632C266.735 53.632 267.583 53.456 268.127 53.104C268.687 52.736 268.967 52.224 268.967 51.568C268.967 51.104 268.815 50.744 268.511 50.488C268.207 50.216 267.823 50.016 267.359 49.888C266.895 49.744 266.279 49.608 265.511 49.48C264.487 49.288 263.663 49.096 263.039 48.904C262.415 48.696 261.879 48.352 261.431 47.872C260.999 47.392 260.783 46.728 260.783 45.88C260.783 44.824 261.223 43.96 262.103 43.288C262.983 42.616 264.207 42.28 265.775 42.28C266.591 42.28 267.407 42.392 268.223 42.616C269.039 42.824 269.711 43.104 270.239 43.456L269.495 44.824C268.455 44.104 267.215 43.744 265.775 43.744C264.687 43.744 263.863 43.936 263.303 44.32C262.759 44.704 262.487 45.208 262.487 45.832C262.487 46.312 262.639 46.696 262.943 46.984C263.263 47.272 263.655 47.488 264.119 47.632C264.583 47.76 265.223 47.896 266.039 48.04C267.047 48.232 267.855 48.424 268.463 48.616C269.071 48.808 269.591 49.136 270.023 49.6C270.455 50.064 270.671 50.704 270.671 51.52C270.671 52.624 270.207 53.504 269.279 54.16C268.367 54.8 267.095 55.12 265.463 55.12ZM274.013 52.504C274.381 52.504 274.685 52.632 274.925 52.888C275.165 53.128 275.285 53.432 275.285 53.8C275.285 53.992 275.253 54.2 275.189 54.424C275.141 54.648 275.061 54.904 274.949 55.192L273.941 58.504H272.789L273.605 55.024C273.349 54.944 273.141 54.8 272.981 54.592C272.821 54.368 272.741 54.104 272.741 53.8C272.741 53.432 272.861 53.128 273.101 52.888C273.341 52.632 273.645 52.504 274.013 52.504ZM285.189 42.376H286.893V55H285.189V42.376ZM286.053 39.616C285.701 39.616 285.405 39.496 285.165 39.256C284.925 39.016 284.805 38.728 284.805 38.392C284.805 38.072 284.925 37.792 285.165 37.552C285.405 37.312 285.701 37.192 286.053 37.192C286.405 37.192 286.701 37.312 286.941 37.552C287.181 37.776 287.301 38.048 287.301 38.368C287.301 38.72 287.181 39.016 286.941 39.256C286.701 39.496 286.405 39.616 286.053 39.616ZM298.282 54.232C297.962 54.52 297.562 54.744 297.082 54.904C296.618 55.048 296.13 55.12 295.618 55.12C294.434 55.12 293.522 54.8 292.882 54.16C292.242 53.52 291.922 52.616 291.922 51.448V43.816H289.666V42.376H291.922V39.616H293.626V42.376H297.466V43.816H293.626V51.352C293.626 52.104 293.81 52.68 294.178 53.08C294.562 53.464 295.106 53.656 295.81 53.656C296.162 53.656 296.498 53.6 296.818 53.488C297.154 53.376 297.442 53.216 297.682 53.008L298.282 54.232ZM314.097 42.28C315.681 42.28 316.937 42.744 317.865 43.672C318.809 44.584 319.281 45.92 319.281 47.68V55H317.577V47.848C317.577 46.536 317.249 45.536 316.593 44.848C315.937 44.16 315.001 43.816 313.785 43.816C312.425 43.816 311.345 44.224 310.545 45.04C309.761 45.84 309.369 46.952 309.369 48.376V55H307.665V37.192H309.369V44.584C309.833 43.848 310.473 43.28 311.289 42.88C312.105 42.48 313.041 42.28 314.097 42.28ZM328.323 42.28C329.971 42.28 331.235 42.696 332.115 43.528C332.995 44.344 333.435 45.56 333.435 47.176V55H331.803V53.032C331.419 53.688 330.851 54.2 330.099 54.568C329.363 54.936 328.483 55.12 327.459 55.12C326.051 55.12 324.931 54.784 324.099 54.112C323.267 53.44 322.851 52.552 322.851 51.448C322.851 50.376 323.235 49.512 324.003 48.856C324.787 48.2 326.027 47.872 327.723 47.872H331.731V47.104C331.731 46.016 331.427 45.192 330.819 44.632C330.211 44.056 329.323 43.768 328.155 43.768C327.355 43.768 326.587 43.904 325.851 44.176C325.115 44.432 324.483 44.792 323.955 45.256L323.187 43.984C323.827 43.44 324.595 43.024 325.491 42.736C326.387 42.432 327.331 42.28 328.323 42.28ZM327.723 53.776C328.683 53.776 329.507 53.56 330.195 53.128C330.883 52.68 331.395 52.04 331.731 51.208V49.144H327.771C325.611 49.144 324.531 49.896 324.531 51.4C324.531 52.136 324.811 52.72 325.371 53.152C325.931 53.568 326.715 53.776 327.723 53.776ZM341.448 55.12C340.424 55.12 339.44 54.976 338.496 54.688C337.568 54.384 336.84 54.008 336.312 53.56L337.08 52.216C337.608 52.632 338.272 52.976 339.072 53.248C339.872 53.504 340.704 53.632 341.568 53.632C342.72 53.632 343.568 53.456 344.112 53.104C344.672 52.736 344.952 52.224 344.952 51.568C344.952 51.104 344.8 50.744 344.496 50.488C344.192 50.216 343.808 50.016 343.344 49.888C342.88 49.744 342.264 49.608 341.496 49.48C340.472 49.288 339.648 49.096 339.024 48.904C338.4 48.696 337.864 48.352 337.416 47.872C336.984 47.392 336.768 46.728 336.768 45.88C336.768 44.824 337.208 43.96 338.088 43.288C338.968 42.616 340.192 42.28 341.76 42.28C342.576 42.28 343.392 42.392 344.208 42.616C345.024 42.824 345.696 43.104 346.224 43.456L345.48 44.824C344.44 44.104 343.2 43.744 341.76 43.744C340.672 43.744 339.848 43.936 339.288 44.32C338.744 44.704 338.472 45.208 338.472 45.832C338.472 46.312 338.624 46.696 338.928 46.984C339.248 47.272 339.64 47.488 340.104 47.632C340.568 47.76 341.208 47.896 342.023 48.04C343.032 48.232 343.84 48.424 344.448 48.616C345.056 48.808 345.576 49.136 346.008 49.6C346.44 50.064 346.656 50.704 346.656 51.52C346.656 52.624 346.192 53.504 345.264 54.16C344.352 54.8 343.08 55.12 341.448 55.12ZM362.591 42.28C363.775 42.28 364.847 42.552 365.807 43.096C366.767 43.624 367.519 44.376 368.063 45.352C368.607 46.328 368.879 47.44 368.879 48.688C368.879 49.936 368.607 51.048 368.063 52.024C367.519 53 366.767 53.76 365.807 54.304C364.847 54.848 363.775 55.12 362.591 55.12C361.535 55.12 360.583 54.896 359.735 54.448C358.903 54 358.231 53.352 357.719 52.504V55H356.087V37.192H357.791V44.776C358.319 43.96 358.991 43.344 359.807 42.928C360.639 42.496 361.567 42.28 362.591 42.28ZM362.471 53.608C363.351 53.608 364.151 53.408 364.871 53.008C365.591 52.592 366.151 52.008 366.551 51.256C366.967 50.504 367.175 49.648 367.175 48.688C367.175 47.728 366.967 46.872 366.551 46.12C366.151 45.368 365.591 44.792 364.871 44.392C364.151 43.976 363.351 43.768 362.471 43.768C361.575 43.768 360.767 43.976 360.047 44.392C359.343 44.792 358.783 45.368 358.367 46.12C357.967 46.872 357.767 47.728 357.767 48.688C357.767 49.648 357.967 50.504 358.367 51.256C358.783 52.008 359.343 52.592 360.047 53.008C360.767 53.408 361.575 53.608 362.471 53.608ZM383.345 49.216H372.785C372.881 50.528 373.385 51.592 374.297 52.408C375.209 53.208 376.361 53.608 377.753 53.608C378.537 53.608 379.257 53.472 379.913 53.2C380.569 52.912 381.137 52.496 381.617 51.952L382.577 53.056C382.017 53.728 381.313 54.24 380.465 54.592C379.633 54.944 378.713 55.12 377.705 55.12C376.409 55.12 375.257 54.848 374.249 54.304C373.257 53.744 372.481 52.976 371.921 52C371.361 51.024 371.081 49.92 371.081 48.688C371.081 47.456 371.345 46.352 371.873 45.376C372.417 44.4 373.153 43.64 374.081 43.096C375.025 42.552 376.081 42.28 377.249 42.28C378.417 42.28 379.465 42.552 380.393 43.096C381.321 43.64 382.049 44.4 382.577 45.376C383.105 46.336 383.369 47.44 383.369 48.688L383.345 49.216ZM377.249 43.744C376.033 43.744 375.009 44.136 374.177 44.92C373.361 45.688 372.897 46.696 372.785 47.944H381.737C381.625 46.696 381.153 45.688 380.321 44.92C379.505 44.136 378.481 43.744 377.249 43.744ZM393.485 54.232C393.165 54.52 392.765 54.744 392.285 54.904C391.821 55.048 391.333 55.12 390.821 55.12C389.637 55.12 388.725 54.8 388.085 54.16C387.445 53.52 387.125 52.616 387.125 51.448V43.816H384.869V42.376H387.125V39.616H388.829V42.376H392.669V43.816H388.829V51.352C388.829 52.104 389.013 52.68 389.381 53.08C389.765 53.464 390.309 53.656 391.013 53.656C391.365 53.656 391.701 53.6 392.021 53.488C392.357 53.376 392.645 53.216 392.885 53.008L393.485 54.232ZM402.907 54.232C402.587 54.52 402.187 54.744 401.707 54.904C401.243 55.048 400.755 55.12 400.243 55.12C399.059 55.12 398.147 54.8 397.507 54.16C396.867 53.52 396.547 52.616 396.547 51.448V43.816H394.291V42.376H396.547V39.616H398.251V42.376H402.091V43.816H398.251V51.352C398.251 52.104 398.435 52.68 398.803 53.08C399.187 53.464 399.731 53.656 400.435 53.656C400.787 53.656 401.123 53.6 401.443 53.488C401.779 53.376 402.067 53.216 402.307 53.008L402.907 54.232ZM416.556 49.216H405.996C406.092 50.528 406.596 51.592 407.508 52.408C408.42 53.208 409.572 53.608 410.964 53.608C411.748 53.608 412.468 53.472 413.124 53.2C413.78 52.912 414.348 52.496 414.828 51.952L415.788 53.056C415.228 53.728 414.524 54.24 413.676 54.592C412.844 54.944 411.924 55.12 410.916 55.12C409.62 55.12 408.468 54.848 407.46 54.304C406.468 53.744 405.692 52.976 405.132 52C404.572 51.024 404.292 49.92 404.292 48.688C404.292 47.456 404.556 46.352 405.084 45.376C405.628 44.4 406.364 43.64 407.292 43.096C408.236 42.552 409.292 42.28 410.46 42.28C411.628 42.28 412.676 42.552 413.604 43.096C414.532 43.64 415.26 44.4 415.788 45.376C416.316 46.336 416.58 47.44 416.58 48.688L416.556 49.216ZM410.46 43.744C409.244 43.744 408.22 44.136 407.388 44.92C406.572 45.688 406.108 46.696 405.996 47.944H414.948C414.836 46.696 414.364 45.688 413.532 44.92C412.716 44.136 411.692 43.744 410.46 43.744ZM421.68 44.848C422.08 44 422.672 43.36 423.456 42.928C424.256 42.496 425.24 42.28 426.408 42.28V43.936L426 43.912C424.672 43.912 423.632 44.32 422.88 45.136C422.128 45.952 421.752 47.096 421.752 48.568V55H420.048V42.376H421.68V44.848ZM140.805 83.232C140.485 83.52 140.085 83.744 139.605 83.904C139.141 84.048 138.653 84.12 138.141 84.12C136.957 84.12 136.045 83.8 135.405 83.16C134.765 82.52 134.445 81.616 134.445 80.448V72.816H132.189V71.376H134.445V68.616H136.149V71.376H139.989V72.816H136.149V80.352C136.149 81.104 136.333 81.68 136.701 82.08C137.085 82.464 137.629 82.656 138.333 82.656C138.685 82.656 139.021 82.6 139.341 82.488C139.677 82.376 139.965 82.216 140.205 82.008L140.805 83.232ZM148.323 71.28C149.971 71.28 151.235 71.696 152.115 72.528C152.995 73.344 153.435 74.56 153.435 76.176V84H151.803V82.032C151.419 82.688 150.851 83.2 150.099 83.568C149.363 83.936 148.483 84.12 147.459 84.12C146.051 84.12 144.931 83.784 144.099 83.112C143.267 82.44 142.851 81.552 142.851 80.448C142.851 79.376 143.235 78.512 144.003 77.856C144.787 77.2 146.027 76.872 147.723 76.872H151.731V76.104C151.731 75.016 151.427 74.192 150.819 73.632C150.211 73.056 149.323 72.768 148.155 72.768C147.355 72.768 146.587 72.904 145.851 73.176C145.115 73.432 144.483 73.792 143.955 74.256L143.187 72.984C143.827 72.44 144.595 72.024 145.491 71.736C146.387 71.432 147.331 71.28 148.323 71.28ZM147.723 82.776C148.683 82.776 149.507 82.56 150.195 82.128C150.883 81.68 151.395 81.04 151.731 80.208V78.144H147.771C145.611 78.144 144.531 78.896 144.531 80.4C144.531 81.136 144.811 81.72 145.371 82.152C145.931 82.568 146.715 82.776 147.723 82.776ZM161.448 84.12C160.424 84.12 159.44 83.976 158.496 83.688C157.568 83.384 156.84 83.008 156.312 82.56L157.08 81.216C157.608 81.632 158.272 81.976 159.072 82.248C159.872 82.504 160.704 82.632 161.568 82.632C162.72 82.632 163.568 82.456 164.112 82.104C164.672 81.736 164.952 81.224 164.952 80.568C164.952 80.104 164.8 79.744 164.496 79.488C164.192 79.216 163.808 79.016 163.344 78.888C162.88 78.744 162.264 78.608 161.496 78.48C160.472 78.288 159.648 78.096 159.024 77.904C158.4 77.696 157.864 77.352 157.416 76.872C156.984 76.392 156.768 75.728 156.768 74.88C156.768 73.824 157.208 72.96 158.088 72.288C158.968 71.616 160.192 71.28 161.76 71.28C162.576 71.28 163.392 71.392 164.208 71.616C165.024 71.824 165.696 72.104 166.224 72.456L165.48 73.824C164.44 73.104 163.2 72.744 161.76 72.744C160.672 72.744 159.848 72.936 159.288 73.32C158.744 73.704 158.472 74.208 158.472 74.832C158.472 75.312 158.624 75.696 158.928 75.984C159.248 76.272 159.64 76.488 160.104 76.632C160.568 76.76 161.208 76.896 162.023 77.04C163.032 77.232 163.84 77.424 164.448 77.616C165.056 77.808 165.576 78.136 166.008 78.6C166.44 79.064 166.656 79.704 166.656 80.52C166.656 81.624 166.192 82.504 165.264 83.16C164.352 83.8 163.08 84.12 161.448 84.12ZM176.454 83.232C176.134 83.52 175.734 83.744 175.254 83.904C174.79 84.048 174.302 84.12 173.79 84.12C172.606 84.12 171.694 83.8 171.054 83.16C170.414 82.52 170.094 81.616 170.094 80.448V72.816H167.838V71.376H170.094V68.616H171.798V71.376H175.638V72.816H171.798V80.352C171.798 81.104 171.982 81.68 172.35 82.08C172.734 82.464 173.278 82.656 173.982 82.656C174.334 82.656 174.67 82.6 174.99 82.488C175.326 82.376 175.614 82.216 175.854 82.008L176.454 83.232ZM190.102 78.216H179.542C179.638 79.528 180.142 80.592 181.054 81.408C181.966 82.208 183.118 82.608 184.51 82.608C185.294 82.608 186.014 82.472 186.67 82.2C187.326 81.912 187.894 81.496 188.374 80.952L189.334 82.056C188.774 82.728 188.07 83.24 187.222 83.592C186.39 83.944 185.47 84.12 184.462 84.12C183.166 84.12 182.014 83.848 181.006 83.304C180.014 82.744 179.238 81.976 178.678 81C178.118 80.024 177.838 78.92 177.838 77.688C177.838 76.456 178.102 75.352 178.63 74.376C179.174 73.4 179.91 72.64 180.838 72.096C181.782 71.552 182.838 71.28 184.006 71.28C185.174 71.28 186.222 71.552 187.15 72.096C188.078 72.64 188.806 73.4 189.334 74.376C189.862 75.336 190.126 76.44 190.126 77.688L190.102 78.216ZM184.006 72.744C182.79 72.744 181.766 73.136 180.934 73.92C180.118 74.688 179.654 75.696 179.542 76.944H188.494C188.382 75.696 187.91 74.688 187.078 73.92C186.262 73.136 185.238 72.744 184.006 72.744ZM218.404 71.376L213.628 84H212.02L208.036 73.656L204.052 84H202.444L197.692 71.376H199.324L203.284 82.104L207.34 71.376H208.804L212.836 82.104L216.844 71.376H218.404ZM227.402 71.28C228.986 71.28 230.242 71.744 231.17 72.672C232.114 73.584 232.586 74.92 232.586 76.68V84H230.882V76.848C230.882 75.536 230.554 74.536 229.898 73.848C229.242 73.16 228.306 72.816 227.09 72.816C225.73 72.816 224.65 73.224 223.85 74.04C223.066 74.84 222.674 75.952 222.674 77.376V84H220.97V66.192H222.674V73.584C223.138 72.848 223.778 72.28 224.594 71.88C225.41 71.48 226.346 71.28 227.402 71.28ZM248.251 78.216H237.691C237.787 79.528 238.291 80.592 239.203 81.408C240.115 82.208 241.267 82.608 242.659 82.608C243.443 82.608 244.163 82.472 244.819 82.2C245.475 81.912 246.043 81.496 246.523 80.952L247.483 82.056C246.923 82.728 246.219 83.24 245.371 83.592C244.539 83.944 243.619 84.12 242.611 84.12C241.315 84.12 240.163 83.848 239.155 83.304C238.163 82.744 237.387 81.976 236.827 81C236.267 80.024 235.987 78.92 235.987 77.688C235.987 76.456 236.251 75.352 236.779 74.376C237.323 73.4 238.059 72.64 238.987 72.096C239.931 71.552 240.987 71.28 242.155 71.28C243.323 71.28 244.371 71.552 245.299 72.096C246.227 72.64 246.955 73.4 247.483 74.376C248.011 75.336 248.275 76.44 248.275 77.688L248.251 78.216ZM242.155 72.744C240.939 72.744 239.915 73.136 239.083 73.92C238.267 74.688 237.803 75.696 237.691 76.944H246.643C246.531 75.696 246.059 74.688 245.227 73.92C244.411 73.136 243.387 72.744 242.155 72.744ZM258.175 71.28C259.759 71.28 261.015 71.744 261.943 72.672C262.887 73.584 263.359 74.92 263.359 76.68V84H261.655V76.848C261.655 75.536 261.327 74.536 260.671 73.848C260.015 73.16 259.079 72.816 257.863 72.816C256.503 72.816 255.423 73.224 254.623 74.04C253.839 74.84 253.447 75.952 253.447 77.376V84H251.743V71.376H253.375V73.704C253.839 72.936 254.479 72.344 255.295 71.928C256.127 71.496 257.087 71.28 258.175 71.28ZM274.267 71.376H275.971V84H274.267V71.376ZM275.131 68.616C274.779 68.616 274.483 68.496 274.243 68.256C274.003 68.016 273.883 67.728 273.883 67.392C273.883 67.072 274.003 66.792 274.243 66.552C274.483 66.312 274.779 66.192 275.131 66.192C275.483 66.192 275.779 66.312 276.019 66.552C276.259 66.776 276.379 67.048 276.379 67.368C276.379 67.72 276.259 68.016 276.019 68.256C275.779 68.496 275.483 68.616 275.131 68.616ZM287.36 83.232C287.04 83.52 286.64 83.744 286.16 83.904C285.696 84.048 285.208 84.12 284.696 84.12C283.512 84.12 282.6 83.8 281.96 83.16C281.32 82.52 281 81.616 281 80.448V72.816H278.744V71.376H281V68.616H282.704V71.376H286.544V72.816H282.704V80.352C282.704 81.104 282.888 81.68 283.256 82.08C283.64 82.464 284.184 82.656 284.888 82.656C285.24 82.656 285.576 82.6 285.896 82.488C286.232 82.376 286.52 82.216 286.76 82.008L287.36 83.232ZM300.919 67.512C300.183 67.512 299.623 67.712 299.239 68.112C298.871 68.512 298.687 69.104 298.687 69.888V71.376H302.575V72.816H298.735V84H297.031V72.816H294.775V71.376H297.031V69.816C297.031 68.664 297.359 67.752 298.015 67.08C298.687 66.408 299.631 66.072 300.847 66.072C301.327 66.072 301.791 66.144 302.239 66.288C302.687 66.416 303.063 66.608 303.367 66.864L302.791 68.136C302.295 67.72 301.671 67.512 300.919 67.512ZM308.43 73.848C308.83 73 309.422 72.36 310.206 71.928C311.006 71.496 311.99 71.28 313.158 71.28V72.936L312.75 72.912C311.422 72.912 310.382 73.32 309.63 74.136C308.878 74.952 308.502 76.096 308.502 77.568V84H306.798V71.376H308.43V73.848ZM327.118 78.216H316.558C316.654 79.528 317.158 80.592 318.07 81.408C318.982 82.208 320.134 82.608 321.526 82.608C322.31 82.608 323.03 82.472 323.686 82.2C324.342 81.912 324.91 81.496 325.39 80.952L326.35 82.056C325.79 82.728 325.086 83.24 324.238 83.592C323.406 83.944 322.486 84.12 321.478 84.12C320.182 84.12 319.03 83.848 318.022 83.304C317.03 82.744 316.254 81.976 315.694 81C315.134 80.024 314.854 78.92 314.854 77.688C314.854 76.456 315.118 75.352 315.646 74.376C316.19 73.4 316.926 72.64 317.854 72.096C318.798 71.552 319.854 71.28 321.022 71.28C322.19 71.28 323.238 71.552 324.166 72.096C325.094 72.64 325.822 73.4 326.35 74.376C326.878 75.336 327.142 76.44 327.142 77.688L327.118 78.216ZM321.022 72.744C319.806 72.744 318.782 73.136 317.95 73.92C317.134 74.688 316.67 75.696 316.558 76.944H325.51C325.398 75.696 324.926 74.688 324.094 73.92C323.278 73.136 322.254 72.744 321.022 72.744ZM333.994 84.12C332.97 84.12 331.986 83.976 331.042 83.688C330.114 83.384 329.386 83.008 328.858 82.56L329.626 81.216C330.154 81.632 330.818 81.976 331.618 82.248C332.418 82.504 333.25 82.632 334.114 82.632C335.266 82.632 336.114 82.456 336.658 82.104C337.218 81.736 337.498 81.224 337.498 80.568C337.498 80.104 337.346 79.744 337.042 79.488C336.738 79.216 336.354 79.016 335.89 78.888C335.426 78.744 334.81 78.608 334.042 78.48C333.018 78.288 332.194 78.096 331.57 77.904C330.946 77.696 330.41 77.352 329.962 76.872C329.53 76.392 329.314 75.728 329.314 74.88C329.314 73.824 329.754 72.96 330.634 72.288C331.514 71.616 332.738 71.28 334.306 71.28C335.122 71.28 335.938 71.392 336.754 71.616C337.57 71.824 338.242 72.104 338.77 72.456L338.026 73.824C336.986 73.104 335.746 72.744 334.306 72.744C333.218 72.744 332.394 72.936 331.834 73.32C331.29 73.704 331.018 74.208 331.018 74.832C331.018 75.312 331.17 75.696 331.474 75.984C331.794 76.272 332.186 76.488 332.65 76.632C333.114 76.76 333.754 76.896 334.57 77.04C335.578 77.232 336.386 77.424 336.994 77.616C337.602 77.808 338.122 78.136 338.554 78.6C338.986 79.064 339.202 79.704 339.202 80.52C339.202 81.624 338.738 82.504 337.81 83.16C336.898 83.8 335.626 84.12 333.994 84.12ZM348.785 71.28C350.369 71.28 351.625 71.744 352.553 72.672C353.497 73.584 353.969 74.92 353.969 76.68V84H352.265V76.848C352.265 75.536 351.937 74.536 351.281 73.848C350.625 73.16 349.689 72.816 348.473 72.816C347.113 72.816 346.033 73.224 345.233 74.04C344.449 74.84 344.057 75.952 344.057 77.376V84H342.353V66.192H344.057V73.584C344.521 72.848 345.161 72.28 345.977 71.88C346.793 71.48 347.729 71.28 348.785 71.28Z" fill="white"/>
<path d="M102.166 119L99.7356 115.49H99.5916H97.0536V119H94.1376V106.4H99.5916C100.708 106.4 101.674 106.586 102.49 106.958C103.318 107.33 103.954 107.858 104.398 108.542C104.842 109.226 105.064 110.036 105.064 110.972C105.064 111.908 104.836 112.718 104.38 113.402C103.936 114.074 103.3 114.59 102.472 114.95L105.298 119H102.166ZM102.112 110.972C102.112 110.264 101.884 109.724 101.428 109.352C100.972 108.968 100.306 108.776 99.4296 108.776H97.0536V113.168H99.4296C100.306 113.168 100.972 112.976 101.428 112.592C101.884 112.208 102.112 111.668 102.112 110.972ZM107.176 109.316H109.984V119H107.176V109.316ZM108.58 107.966C108.064 107.966 107.644 107.816 107.32 107.516C106.996 107.216 106.834 106.844 106.834 106.4C106.834 105.956 106.996 105.584 107.32 105.284C107.644 104.984 108.064 104.834 108.58 104.834C109.096 104.834 109.516 104.978 109.84 105.266C110.164 105.554 110.326 105.914 110.326 106.346C110.326 106.814 110.164 107.204 109.84 107.516C109.516 107.816 109.096 107.966 108.58 107.966ZM117.198 119.144C116.178 119.144 115.26 118.934 114.444 118.514C113.64 118.082 113.01 117.488 112.554 116.732C112.098 115.976 111.87 115.118 111.87 114.158C111.87 113.198 112.098 112.34 112.554 111.584C113.01 110.828 113.64 110.24 114.444 109.82C115.26 109.388 116.178 109.172 117.198 109.172C118.218 109.172 119.13 109.388 119.934 109.82C120.738 110.24 121.368 110.828 121.824 111.584C122.28 112.34 122.508 113.198 122.508 114.158C122.508 115.118 122.28 115.976 121.824 116.732C121.368 117.488 120.738 118.082 119.934 118.514C119.13 118.934 118.218 119.144 117.198 119.144ZM117.198 116.84C117.918 116.84 118.506 116.6 118.962 116.12C119.43 115.628 119.664 114.974 119.664 114.158C119.664 113.342 119.43 112.694 118.962 112.214C118.506 111.722 117.918 111.476 117.198 111.476C116.478 111.476 115.884 111.722 115.416 112.214C114.948 112.694 114.714 113.342 114.714 114.158C114.714 114.974 114.948 115.628 115.416 116.12C115.884 116.6 116.478 116.84 117.198 116.84ZM148.725 106.4L144.603 119H141.471L138.699 110.468L135.837 119H132.723L128.583 106.4H131.607L134.451 115.256L137.421 106.4H140.121L143.001 115.328L145.935 106.4H148.725ZM150.33 109.316H153.138V119H150.33V109.316ZM151.734 107.966C151.218 107.966 150.798 107.816 150.474 107.516C150.15 107.216 149.988 106.844 149.988 106.4C149.988 105.956 150.15 105.584 150.474 105.284C150.798 104.984 151.218 104.834 151.734 104.834C152.25 104.834 152.67 104.978 152.994 105.266C153.318 105.554 153.48 105.914 153.48 106.346C153.48 106.814 153.318 107.204 152.994 107.516C152.67 107.816 152.25 107.966 151.734 107.966ZM161.468 109.172C162.368 109.172 163.184 109.382 163.916 109.802C164.66 110.21 165.242 110.792 165.662 111.548C166.082 112.292 166.292 113.162 166.292 114.158C166.292 115.154 166.082 116.03 165.662 116.786C165.242 117.53 164.66 118.112 163.916 118.532C163.184 118.94 162.368 119.144 161.468 119.144C160.136 119.144 159.122 118.724 158.426 117.884V119H155.744V105.644H158.552V110.342C159.26 109.562 160.232 109.172 161.468 109.172ZM160.982 116.84C161.702 116.84 162.29 116.6 162.746 116.12C163.214 115.628 163.448 114.974 163.448 114.158C163.448 113.342 163.214 112.694 162.746 112.214C162.29 111.722 161.702 111.476 160.982 111.476C160.262 111.476 159.668 111.722 159.2 112.214C158.744 112.694 158.516 113.342 158.516 114.158C158.516 114.974 158.744 115.628 159.2 116.12C159.668 116.6 160.262 116.84 160.982 116.84ZM172.78 119.144C171.76 119.144 170.842 118.934 170.026 118.514C169.222 118.082 168.592 117.488 168.136 116.732C167.68 115.976 167.452 115.118 167.452 114.158C167.452 113.198 167.68 112.34 168.136 111.584C168.592 110.828 169.222 110.24 170.026 109.82C170.842 109.388 171.76 109.172 172.78 109.172C173.8 109.172 174.712 109.388 175.516 109.82C176.32 110.24 176.95 110.828 177.406 111.584C177.862 112.34 178.09 113.198 178.09 114.158C178.09 115.118 177.862 115.976 177.406 116.732C176.95 117.488 176.32 118.082 175.516 118.514C174.712 118.934 173.8 119.144 172.78 119.144ZM172.78 116.84C173.5 116.84 174.088 116.6 174.544 116.12C175.012 115.628 175.246 114.974 175.246 114.158C175.246 113.342 175.012 112.694 174.544 112.214C174.088 111.722 173.5 111.476 172.78 111.476C172.06 111.476 171.466 111.722 170.998 112.214C170.53 112.694 170.296 113.342 170.296 114.158C170.296 114.974 170.53 115.628 170.998 116.12C171.466 116.6 172.06 116.84 172.78 116.84ZM195.255 109.316L191.745 119H189.045L186.867 112.988L184.617 119H181.917L178.425 109.316H181.071L183.357 115.868L185.733 109.316H188.109L190.413 115.868L192.771 109.316H195.255ZM200.905 119.144C199.885 119.144 198.967 118.934 198.151 118.514C197.347 118.082 196.717 117.488 196.261 116.732C195.805 115.976 195.577 115.118 195.577 114.158C195.577 113.198 195.805 112.34 196.261 111.584C196.717 110.828 197.347 110.24 198.151 109.82C198.967 109.388 199.885 109.172 200.905 109.172C201.925 109.172 202.837 109.388 203.641 109.82C204.445 110.24 205.075 110.828 205.531 111.584C205.987 112.34 206.215 113.198 206.215 114.158C206.215 115.118 205.987 115.976 205.531 116.732C205.075 117.488 204.445 118.082 203.641 118.514C202.837 118.934 201.925 119.144 200.905 119.144ZM200.905 116.84C201.625 116.84 202.213 116.6 202.669 116.12C203.137 115.628 203.371 114.974 203.371 114.158C203.371 113.342 203.137 112.694 202.669 112.214C202.213 111.722 201.625 111.476 200.905 111.476C200.185 111.476 199.591 111.722 199.123 112.214C198.655 112.694 198.421 113.342 198.421 114.158C198.421 114.974 198.655 115.628 199.123 116.12C199.591 116.6 200.185 116.84 200.905 116.84ZM209.049 115.652C209.553 115.652 209.967 115.814 210.291 116.138C210.615 116.45 210.777 116.864 210.777 117.38C210.777 117.62 210.747 117.86 210.687 118.1C210.627 118.34 210.495 118.7 210.291 119.18L209.265 121.772H207.483L208.275 118.91C207.975 118.79 207.735 118.598 207.555 118.334C207.387 118.058 207.303 117.74 207.303 117.38C207.303 116.864 207.465 116.45 207.789 116.138C208.125 115.814 208.545 115.652 209.049 115.652ZM220.891 108.74V112.07H226.723V114.41H220.891V119H217.975V106.4H227.497V108.74H220.891ZM229.098 109.316H231.906V119H229.098V109.316ZM230.502 107.966C229.986 107.966 229.566 107.816 229.242 107.516C228.918 107.216 228.756 106.844 228.756 106.4C228.756 105.956 228.918 105.584 229.242 105.284C229.566 104.984 229.986 104.834 230.502 104.834C231.018 104.834 231.438 104.978 231.762 105.266C232.086 105.554 232.248 105.914 232.248 106.346C232.248 106.814 232.086 107.204 231.762 107.516C231.438 107.816 231.018 107.966 230.502 107.966ZM240.398 109.172C241.598 109.172 242.564 109.532 243.296 110.252C244.04 110.972 244.412 112.04 244.412 113.456V119H241.604V113.888C241.604 113.12 241.436 112.55 241.1 112.178C240.764 111.794 240.278 111.602 239.642 111.602C238.934 111.602 238.37 111.824 237.95 112.268C237.53 112.7 237.32 113.348 237.32 114.212V119H234.512V109.316H237.194V110.45C237.566 110.042 238.028 109.73 238.58 109.514C239.132 109.286 239.738 109.172 240.398 109.172ZM253.203 118.532C252.927 118.736 252.585 118.892 252.177 119C251.781 119.096 251.361 119.144 250.917 119.144C249.765 119.144 248.871 118.85 248.235 118.262C247.611 117.674 247.299 116.81 247.299 115.67V111.692H245.805V109.532H247.299V107.174H250.107V109.532H252.519V111.692H250.107V115.634C250.107 116.042 250.209 116.36 250.413 116.588C250.629 116.804 250.929 116.912 251.313 116.912C251.757 116.912 252.135 116.792 252.447 116.552L253.203 118.532ZM263.967 114.194C263.967 114.23 263.949 114.482 263.913 114.95H256.587C256.719 115.55 257.031 116.024 257.523 116.372C258.015 116.72 258.627 116.894 259.359 116.894C259.863 116.894 260.307 116.822 260.691 116.678C261.087 116.522 261.453 116.282 261.789 115.958L263.283 117.578C262.371 118.622 261.039 119.144 259.287 119.144C258.195 119.144 257.229 118.934 256.389 118.514C255.549 118.082 254.901 117.488 254.445 116.732C253.989 115.976 253.761 115.118 253.761 114.158C253.761 113.21 253.983 112.358 254.427 111.602C254.883 110.834 255.501 110.24 256.281 109.82C257.073 109.388 257.955 109.172 258.927 109.172C259.875 109.172 260.733 109.376 261.501 109.784C262.269 110.192 262.869 110.78 263.301 111.548C263.745 112.304 263.967 113.186 263.967 114.194ZM258.945 111.296C258.309 111.296 257.775 111.476 257.343 111.836C256.911 112.196 256.647 112.688 256.551 113.312H261.321C261.225 112.7 260.961 112.214 260.529 111.854C260.097 111.482 259.569 111.296 258.945 111.296ZM268.518 110.594C268.854 110.126 269.304 109.772 269.868 109.532C270.444 109.292 271.104 109.172 271.848 109.172V111.764C271.536 111.74 271.326 111.728 271.218 111.728C270.414 111.728 269.784 111.956 269.328 112.412C268.872 112.856 268.644 113.528 268.644 114.428V119H265.836V109.316H268.518V110.594ZM273.518 105.644H276.326V119H273.518V105.644ZM282.838 109.172C284.338 109.172 285.49 109.532 286.294 110.252C287.098 110.96 287.5 112.034 287.5 113.474V119H284.872V117.794C284.344 118.694 283.36 119.144 281.92 119.144C281.176 119.144 280.528 119.018 279.976 118.766C279.436 118.514 279.022 118.166 278.734 117.722C278.446 117.278 278.302 116.774 278.302 116.21C278.302 115.31 278.638 114.602 279.31 114.086C279.994 113.57 281.044 113.312 282.46 113.312H284.692C284.692 112.7 284.506 112.232 284.134 111.908C283.762 111.572 283.204 111.404 282.46 111.404C281.944 111.404 281.434 111.488 280.93 111.656C280.438 111.812 280.018 112.028 279.67 112.304L278.662 110.342C279.19 109.97 279.82 109.682 280.552 109.478C281.296 109.274 282.058 109.172 282.838 109.172ZM282.622 117.254C283.102 117.254 283.528 117.146 283.9 116.93C284.272 116.702 284.536 116.372 284.692 115.94V114.95H282.766C281.614 114.95 281.038 115.328 281.038 116.084C281.038 116.444 281.176 116.732 281.452 116.948C281.74 117.152 282.13 117.254 282.622 117.254ZM295.765 109.172C296.665 109.172 297.481 109.382 298.213 109.802C298.957 110.21 299.539 110.792 299.959 111.548C300.379 112.292 300.589 113.162 300.589 114.158C300.589 115.154 300.379 116.03 299.959 116.786C299.539 117.53 298.957 118.112 298.213 118.532C297.481 118.94 296.665 119.144 295.765 119.144C294.433 119.144 293.419 118.724 292.723 117.884V119H290.041V105.644H292.849V110.342C293.557 109.562 294.529 109.172 295.765 109.172ZM295.279 116.84C295.999 116.84 296.587 116.6 297.043 116.12C297.511 115.628 297.745 114.974 297.745 114.158C297.745 113.342 297.511 112.694 297.043 112.214C296.587 111.722 295.999 111.476 295.279 111.476C294.559 111.476 293.965 111.722 293.497 112.214C293.041 112.694 292.813 113.342 292.813 114.158C292.813 114.974 293.041 115.628 293.497 116.12C293.965 116.6 294.559 116.84 295.279 116.84ZM305.727 119.144C304.923 119.144 304.137 119.048 303.369 118.856C302.601 118.652 301.989 118.4 301.533 118.1L302.469 116.084C302.901 116.36 303.423 116.588 304.035 116.768C304.647 116.936 305.247 117.02 305.835 117.02C307.023 117.02 307.617 116.726 307.617 116.138C307.617 115.862 307.455 115.664 307.131 115.544C306.807 115.424 306.309 115.322 305.637 115.238C304.845 115.118 304.191 114.98 303.675 114.824C303.159 114.668 302.709 114.392 302.325 113.996C301.953 113.6 301.767 113.036 301.767 112.304C301.767 111.692 301.941 111.152 302.289 110.684C302.649 110.204 303.165 109.832 303.837 109.568C304.521 109.304 305.325 109.172 306.249 109.172C306.933 109.172 307.611 109.25 308.283 109.406C308.967 109.55 309.531 109.754 309.975 110.018L309.039 112.016C308.187 111.536 307.257 111.296 306.249 111.296C305.649 111.296 305.199 111.38 304.899 111.548C304.599 111.716 304.449 111.932 304.449 112.196C304.449 112.496 304.611 112.706 304.935 112.826C305.259 112.946 305.775 113.06 306.483 113.168C307.275 113.3 307.923 113.444 308.427 113.6C308.931 113.744 309.369 114.014 309.741 114.41C310.113 114.806 310.299 115.358 310.299 116.066C310.299 116.666 310.119 117.2 309.759 117.668C309.399 118.136 308.871 118.502 308.175 118.766C307.491 119.018 306.675 119.144 305.727 119.144ZM320.243 108.74V112.07H326.075V114.41H320.243V119H317.327V106.4H326.849V108.74H320.243ZM332.987 119.144C331.967 119.144 331.049 118.934 330.233 118.514C329.429 118.082 328.799 117.488 328.343 116.732C327.887 115.976 327.659 115.118 327.659 114.158C327.659 113.198 327.887 112.34 328.343 111.584C328.799 110.828 329.429 110.24 330.233 109.82C331.049 109.388 331.967 109.172 332.987 109.172C334.007 109.172 334.919 109.388 335.723 109.82C336.527 110.24 337.157 110.828 337.613 111.584C338.069 112.34 338.297 113.198 338.297 114.158C338.297 115.118 338.069 115.976 337.613 116.732C337.157 117.488 336.527 118.082 335.723 118.514C334.919 118.934 334.007 119.144 332.987 119.144ZM332.987 116.84C333.707 116.84 334.295 116.6 334.751 116.12C335.219 115.628 335.453 114.974 335.453 114.158C335.453 113.342 335.219 112.694 334.751 112.214C334.295 111.722 333.707 111.476 332.987 111.476C332.267 111.476 331.673 111.722 331.205 112.214C330.737 112.694 330.503 113.342 330.503 114.158C330.503 114.974 330.737 115.628 331.205 116.12C331.673 116.6 332.267 116.84 332.987 116.84ZM349.93 109.316V119H347.266V117.848C346.894 118.268 346.45 118.592 345.934 118.82C345.418 119.036 344.86 119.144 344.26 119.144C342.988 119.144 341.98 118.778 341.236 118.046C340.492 117.314 340.12 116.228 340.12 114.788V109.316H342.928V114.374C342.928 115.934 343.582 116.714 344.89 116.714C345.562 116.714 346.102 116.498 346.51 116.066C346.918 115.622 347.122 114.968 347.122 114.104V109.316H349.93ZM358.417 109.172C359.617 109.172 360.583 109.532 361.315 110.252C362.059 110.972 362.431 112.04 362.431 113.456V119H359.623V113.888C359.623 113.12 359.455 112.55 359.119 112.178C358.783 111.794 358.297 111.602 357.661 111.602C356.953 111.602 356.389 111.824 355.969 112.268C355.549 112.7 355.339 113.348 355.339 114.212V119H352.531V109.316H355.213V110.45C355.585 110.042 356.047 109.73 356.599 109.514C357.151 109.286 357.757 109.172 358.417 109.172ZM374.946 105.644V119H372.264V117.884C371.568 118.724 370.56 119.144 369.24 119.144C368.328 119.144 367.5 118.94 366.756 118.532C366.024 118.124 365.448 117.542 365.028 116.786C364.608 116.03 364.398 115.154 364.398 114.158C364.398 113.162 364.608 112.286 365.028 111.53C365.448 110.774 366.024 110.192 366.756 109.784C367.5 109.376 368.328 109.172 369.24 109.172C370.476 109.172 371.442 109.562 372.138 110.342V105.644H374.946ZM369.726 116.84C370.434 116.84 371.022 116.6 371.49 116.12C371.958 115.628 372.192 114.974 372.192 114.158C372.192 113.342 371.958 112.694 371.49 112.214C371.022 111.722 370.434 111.476 369.726 111.476C369.006 111.476 368.412 111.722 367.944 112.214C367.476 112.694 367.242 113.342 367.242 114.158C367.242 114.974 367.476 115.628 367.944 116.12C368.412 116.6 369.006 116.84 369.726 116.84ZM387.031 114.194C387.031 114.23 387.013 114.482 386.977 114.95H379.651C379.783 115.55 380.095 116.024 380.587 116.372C381.079 116.72 381.691 116.894 382.423 116.894C382.927 116.894 383.371 116.822 383.755 116.678C384.151 116.522 384.517 116.282 384.853 115.958L386.347 117.578C385.435 118.622 384.103 119.144 382.351 119.144C381.259 119.144 380.293 118.934 379.453 118.514C378.613 118.082 377.965 117.488 377.509 116.732C377.053 115.976 376.825 115.118 376.825 114.158C376.825 113.21 377.047 112.358 377.491 111.602C377.947 110.834 378.565 110.24 379.345 109.82C380.137 109.388 381.019 109.172 381.991 109.172C382.939 109.172 383.797 109.376 384.565 109.784C385.333 110.192 385.933 110.78 386.365 111.548C386.809 112.304 387.031 113.186 387.031 114.194ZM382.009 111.296C381.373 111.296 380.839 111.476 380.407 111.836C379.975 112.196 379.711 112.688 379.615 113.312H384.385C384.289 112.7 384.025 112.214 383.593 111.854C383.161 111.482 382.633 111.296 382.009 111.296ZM391.582 110.594C391.918 110.126 392.368 109.772 392.932 109.532C393.508 109.292 394.168 109.172 394.912 109.172V111.764C394.6 111.74 394.39 111.728 394.282 111.728C393.478 111.728 392.848 111.956 392.392 112.412C391.936 112.856 391.708 113.528 391.708 114.428V119H388.9V109.316H391.582V110.594Z" fill="white"/>
<path d="M430.808 101.5C432.768 101.5 434.378 102.13 435.638 103.39C436.898 104.603 437.528 106.213 437.528 108.22C437.528 109.153 437.412 110.087 437.178 111.02C436.945 111.953 436.455 113.353 435.708 115.22L431.648 125.3H424.718L427.728 114.24C426.562 113.727 425.652 112.957 424.998 111.93C424.345 110.903 424.018 109.667 424.018 108.22C424.018 106.213 424.648 104.603 425.908 103.39C427.215 102.13 428.848 101.5 430.808 101.5ZM447.328 101.5C449.288 101.5 450.898 102.13 452.158 103.39C453.418 104.603 454.048 106.213 454.048 108.22C454.048 109.153 453.932 110.087 453.698 111.02C453.465 111.953 452.975 113.353 452.228 115.22L448.168 125.3H441.238L444.248 114.24C443.082 113.727 442.172 112.957 441.518 111.93C440.865 110.903 440.538 109.667 440.538 108.22C440.538 106.213 441.168 104.603 442.428 103.39C443.735 102.13 445.368 101.5 447.328 101.5Z" fill="white"/>
<path d="M28.7484 32.19C29.915 32.7033 30.825 33.4733 31.4784 34.5C32.1317 35.5267 32.4584 36.74 32.4584 38.14C32.4584 40.1467 31.8284 41.78 30.5684 43.04C29.3084 44.2533 27.6984 44.86 25.7384 44.86C23.7784 44.86 22.145 44.23 20.8384 42.97C19.5784 41.71 18.9484 40.1 18.9484 38.14C18.9484 37.2067 19.065 36.2733 19.2984 35.34C19.5317 34.4067 20.045 33.0067 20.8384 31.14L24.8984 21.06H31.8284L28.7484 32.19ZM45.2684 32.19C46.435 32.7033 47.345 33.4733 47.9984 34.5C48.6517 35.5267 48.9784 36.74 48.9784 38.14C48.9784 40.1467 48.3484 41.78 47.0884 43.04C45.8284 44.2533 44.2184 44.86 42.2584 44.86C40.2984 44.86 38.665 44.23 37.3584 42.97C36.0984 41.71 35.4684 40.1 35.4684 38.14C35.4684 37.2067 35.585 36.2733 35.8184 35.34C36.0517 34.4067 36.565 33.0067 37.3584 31.14L41.4184 21.06H48.3484L45.2684 32.19Z" fill="white"/>
</svg>
