<?xml version="1.0" encoding="utf-8"?>
<!-- Generator: Adobe Illustrator 21.1.0, SVG Export Plug-In . SVG Version: 6.00 Build 0)  -->
<svg version="1.1" id="Layer_1" xmlns="http://www.w3.org/2000/svg" xmlns:xlink="http://www.w3.org/1999/xlink" x="0px" y="0px"
	 viewBox="0 0 20 20" style="enable-background:new 0 0 20 20;" xml:space="preserve">
<style type="text/css">
	.st0{fill:#BB2025;}
	.st1{fill:#FFFFFF;stroke:url(#SVGID_1_);stroke-width:2;stroke-miterlimit:10;}
	.st2{fill:#F37C80;}
	.st3{fill:#F0575C;}
	.st4{fill:#ED3338;}
	.st5{fill:#DF1F26;}
	.st6{fill:#FAC7C9;}
	.st7{fill:#FEF5F6;}
	.st8{fill:url(#SVGID_2_);}
	.st9{fill:url(#SVGID_3_);}
	.st10{fill:none;}
	.st11{fill:url(#SVGID_4_);}
	.st12{fill:url(#SVGID_5_);}
	.st13{fill:url(#SVGID_6_);}
	.st14{fill:url(#SVGID_7_);}
	.st15{fill:url(#SVGID_8_);}
	.st16{fill:url(#SVGID_9_);}
	.st17{fill:url(#SVGID_10_);}
	.st18{fill:url(#SVGID_11_);}
	.st19{fill:url(#SVGID_12_);}
	.st20{fill:url(#SVGID_13_);}
	.st21{fill:url(#SVGID_14_);}
	.st22{fill:url(#SVGID_15_);}
	.st23{fill:url(#SVGID_16_);}
	.st24{fill:url(#SVGID_17_);}
	.st25{fill:url(#SVGID_18_);}
	.st26{fill:url(#SVGID_19_);}
	.st27{fill:url(#SVGID_20_);}
	.st28{fill:url(#SVGID_21_);}
	.st29{fill:url(#SVGID_22_);}
	.st30{fill:url(#SVGID_23_);}
	.st31{fill:url(#SVGID_24_);}
	.st32{fill:url(#SVGID_25_);}
	.st33{fill:url(#SVGID_26_);}
	.st34{fill:url(#SVGID_27_);}
	.st35{fill:url(#SVGID_28_);}
	.st36{fill:url(#SVGID_29_);}
	.st37{fill:url(#SVGID_30_);}
	.st38{fill:url(#SVGID_31_);}
	.st39{fill:url(#SVGID_32_);}
	.st40{fill:url(#SVGID_33_);}
	.st41{fill:url(#SVGID_34_);}
	.st42{fill:url(#SVGID_35_);}
	.st43{fill:url(#SVGID_36_);}
	.st44{fill:url(#SVGID_37_);}
	.st45{fill:url(#SVGID_38_);}
	.st46{fill:url(#SVGID_39_);}
	.st47{fill:url(#SVGID_40_);}
	.st48{fill:url(#SVGID_41_);}
	.st49{fill:url(#SVGID_42_);}
	.st50{fill:url(#SVGID_43_);}
	.st51{fill:url(#SVGID_44_);}
	.st52{fill:#BB2127;}
	.st53{fill:url(#SVGID_45_);}
	.st54{fill:#FFFFFF;}
	.st55{fill:none;stroke:#BB2025;stroke-width:0.75;stroke-miterlimit:10;}
	.st56{fill:url(#SVGID_46_);}
	.st57{fill:url(#SVGID_47_);}
	.st58{fill:none;stroke:url(#SVGID_48_);stroke-miterlimit:10;}
	.st59{fill:#FFFFFF;stroke:url(#SVGID_49_);stroke-width:1.5;stroke-miterlimit:10;}
	.st60{fill:#FFFFFF;stroke:url(#SVGID_50_);stroke-width:1.5;stroke-miterlimit:10;}
	.st61{fill:none;stroke:url(#SVGID_51_);stroke-width:1.5;stroke-miterlimit:10;}
	.st62{fill:none;stroke:url(#SVGID_52_);stroke-width:1.5;stroke-miterlimit:10;}
	.st63{fill:none;stroke:url(#SVGID_53_);stroke-width:1.5;stroke-miterlimit:10;}
	.st64{fill:none;stroke:url(#SVGID_54_);stroke-width:1.5;stroke-miterlimit:10;}
	.st65{fill:#FFFFFF;stroke:url(#SVGID_55_);stroke-width:1.5;stroke-miterlimit:10;}
	.st66{fill:#FFFFFF;stroke:url(#SVGID_56_);stroke-width:1.5;stroke-miterlimit:10;}
	.st67{fill:#FFFFFF;stroke:url(#SVGID_57_);stroke-width:2;stroke-miterlimit:10;}
	.st68{fill:#FFFFFF;stroke:url(#SVGID_58_);stroke-miterlimit:10;}
	.st69{fill:#FFFFFF;stroke:url(#SVGID_59_);stroke-miterlimit:10;}
	.st70{fill:#FFFFFF;stroke:url(#SVGID_60_);stroke-miterlimit:10;}
	.st71{fill:#FFFFFF;stroke:url(#SVGID_61_);stroke-miterlimit:10;}
	.st72{fill:#FFFFFF;stroke:url(#SVGID_62_);stroke-width:1.5;stroke-miterlimit:10;}
	.st73{fill:none;stroke:url(#SVGID_63_);stroke-width:1.5;stroke-miterlimit:10;}
	.st74{fill:none;stroke:url(#SVGID_64_);stroke-width:1.5;stroke-miterlimit:10;}
	.st75{fill:none;stroke:url(#SVGID_65_);stroke-width:1.5;stroke-miterlimit:10;}
	.st76{fill:none;stroke:url(#SVGID_66_);stroke-width:1.5;stroke-miterlimit:10;}
	.st77{fill:url(#SVGID_67_);}
	.st78{fill:url(#SVGID_68_);}
	.st79{fill:url(#SVGID_69_);}
	.st80{fill:url(#SVGID_70_);}
	.st81{fill:url(#SVGID_71_);}
</style>
<g>
	<path class="st0" d="M13,15.3V15H7.1c-0.1,0-0.3-0.1-0.3-0.3c0-0.1,0.1-0.3,0.3-0.3H13c0.1,0,0.3,0.1,0.3,0.3
		c0,0.1-0.1,0.3-0.3,0.3V15.3v0.3c0.4,0,0.8-0.4,0.8-0.8c0-0.4-0.4-0.8-0.8-0.8H7.1c-0.4,0-0.8,0.4-0.8,0.8c0,0.4,0.4,0.8,0.8,0.8
		H13V15.3z"/>
	<path class="st0" d="M12.2,17.3V17H7.9c-0.1,0-0.3-0.1-0.3-0.3c0-0.1,0.1-0.3,0.3-0.3h4.3c0.1,0,0.3,0.1,0.3,0.3
		c0,0.1-0.1,0.3-0.3,0.3V17.3v0.3c0.4,0,0.8-0.4,0.8-0.8c0-0.4-0.4-0.8-0.8-0.8H7.9c-0.4,0-0.8,0.4-0.8,0.8c0,0.4,0.4,0.8,0.8,0.8
		h4.3V17.3z"/>
	<linearGradient id="SVGID_1_" gradientUnits="userSpaceOnUse" x1="13.2137" y1="13.3276" x2="13.2355" y2="13.3276">
		<stop  offset="0" style="stop-color:#ED3439"/>
		<stop  offset="1.355623e-02" style="stop-color:#EE3D3D"/>
		<stop  offset="0.1404" style="stop-color:#F27467"/>
		<stop  offset="0.2563" style="stop-color:#F5978C"/>
		<stop  offset="0.3575" style="stop-color:#F8B1AC"/>
		<stop  offset="0.4401" style="stop-color:#FAC1C1"/>
		<stop  offset="0.4937" style="stop-color:#FAC7C9"/>
		<stop  offset="0.5518" style="stop-color:#FAC3C3"/>
		<stop  offset="0.6301" style="stop-color:#F9B5B2"/>
		<stop  offset="0.72" style="stop-color:#F6A098"/>
		<stop  offset="0.8185" style="stop-color:#F48477"/>
		<stop  offset="0.9228" style="stop-color:#F05E54"/>
		<stop  offset="1" style="stop-color:#ED3439"/>
	</linearGradient>
	<path style="fill:url(#SVGID_1_);" d="M13.2,13.3C13.2,13.3,13.2,13.3,13.2,13.3L13.2,13.3C13.2,13.3,13.2,13.3,13.2,13.3z"/>
	<g>
		<path class="st0" d="M10.1,2.8V2.6C7.2,2.6,5,4.8,5,7.7c0,1.5,0.7,2.9,1.7,3.8l0,0l0,0l0,0l0,0l0,0c0.1,0.1,0.2,0.2,0.2,0.4v0.6
			v0.1v1h6.4v-1v-0.1v-0.6c0-0.1,0.1-0.3,0.1-0.4l-0.2-0.2l0.2,0.2l0,0l0,0l0.1-0.1v-0.1h-0.3l0.2,0.2l0,0l-0.2-0.2l0.2,0.2l0,0l0,0
			l0,0l-0.2-0.2l0.2,0.2c1-0.9,1.7-2.3,1.7-3.8c0-2.8-2.3-5.1-5.1-5.1V2.8v0.3c1.3,0,2.4,0.5,3.2,1.3c0.8,0.8,1.3,2,1.3,3.2
			c0,1.3-0.6,2.6-1.5,3.4l0,0l0,0l0.2,0.2L13.1,11l0,0l0,0l0,0L13,11.2v0.1h0.3l-0.2-0.2l0,0l0,0l0,0l0,0l0,0
			c-0.2,0.2-0.3,0.5-0.3,0.7v0.6v0.1v0.4H7.4v-0.4v-0.1v-0.6c0-0.3-0.1-0.6-0.3-0.8l-0.2,0.2l0.2-0.2l0,0l0,0l0,0l-0.2,0.2L7,11
			c-0.9-0.8-1.5-2-1.5-3.4c0-1.3,0.5-2.4,1.3-3.2c0.8-0.8,2-1.3,3.2-1.3V2.8z"/>
	</g>
	<g>
		<path class="st4" d="M7,7.2c0-0.7,0.3-1.4,0.8-1.9C8.3,4.8,9,4.5,9.7,4.5c0.2,0,0.3-0.1,0.3-0.3C10,4.1,9.9,4,9.7,4
			C8.8,4,8,4.3,7.4,4.9C6.9,5.5,6.5,6.3,6.5,7.2c0,0.2,0.1,0.3,0.3,0.3C6.9,7.5,7,7.4,7,7.2L7,7.2z"/>
	</g>
	<rect y="0" class="st10" width="20" height="20"/>
</g>
</svg>
