<?xml version="1.0" encoding="utf-8"?>
<!-- Generator: Adobe Illustrator 21.1.0, SVG Export Plug-In . SVG Version: 6.00 Build 0)  -->
<svg version="1.1" id="Layer_1" xmlns="http://www.w3.org/2000/svg" xmlns:xlink="http://www.w3.org/1999/xlink" x="0px" y="0px"
	 viewBox="0 0 20 20" style="enable-background:new 0 0 20 20;" xml:space="preserve">
<style type="text/css">
	.st0{fill:#BB2025;}
	.st1{fill:#FFFFFF;stroke:url(#SVGID_1_);stroke-width:2;stroke-miterlimit:10;}
	.st2{fill:#F37C80;}
	.st3{fill:#F0575C;}
	.st4{fill:#ED3338;}
	.st5{fill:#DF1F26;}
	.st6{fill:#FAC7C9;}
	.st7{fill:#FEF5F6;}
	.st8{fill:url(#SVGID_2_);}
	.st9{fill:url(#SVGID_3_);}
	.st10{fill:none;}
	.st11{fill:url(#SVGID_4_);}
	.st12{fill:url(#SVGID_5_);}
	.st13{fill:url(#SVGID_6_);}
	.st14{fill:url(#SVGID_7_);}
	.st15{fill:url(#SVGID_8_);}
	.st16{fill:url(#SVGID_9_);}
	.st17{fill:url(#SVGID_10_);}
	.st18{fill:url(#SVGID_11_);}
	.st19{fill:url(#SVGID_12_);}
	.st20{fill:url(#SVGID_13_);}
	.st21{fill:url(#SVGID_14_);}
	.st22{fill:url(#SVGID_15_);}
	.st23{fill:url(#SVGID_16_);}
	.st24{fill:url(#SVGID_17_);}
	.st25{fill:url(#SVGID_18_);}
	.st26{fill:url(#SVGID_19_);}
	.st27{fill:url(#SVGID_20_);}
	.st28{fill:url(#SVGID_21_);}
	.st29{fill:url(#SVGID_22_);}
	.st30{fill:url(#SVGID_23_);}
	.st31{fill:url(#SVGID_24_);}
	.st32{fill:url(#SVGID_25_);}
	.st33{fill:url(#SVGID_26_);}
	.st34{fill:url(#SVGID_27_);}
	.st35{fill:url(#SVGID_28_);}
	.st36{fill:url(#SVGID_29_);}
	.st37{fill:url(#SVGID_30_);}
	.st38{fill:url(#SVGID_31_);}
	.st39{fill:url(#SVGID_32_);}
	.st40{fill:url(#SVGID_33_);}
	.st41{fill:url(#SVGID_34_);}
	.st42{fill:url(#SVGID_35_);}
	.st43{fill:url(#SVGID_36_);}
	.st44{fill:url(#SVGID_37_);}
	.st45{fill:url(#SVGID_38_);}
	.st46{fill:url(#SVGID_39_);}
	.st47{fill:url(#SVGID_40_);}
	.st48{fill:url(#SVGID_41_);}
	.st49{fill:url(#SVGID_42_);}
	.st50{fill:url(#SVGID_43_);}
	.st51{fill:url(#SVGID_44_);}
	.st52{fill:#BB2127;}
	.st53{fill:url(#SVGID_45_);}
	.st54{fill:#FFFFFF;}
	.st55{fill:none;stroke:#BB2025;stroke-width:0.75;stroke-miterlimit:10;}
	.st56{fill:url(#SVGID_46_);}
	.st57{fill:url(#SVGID_47_);}
	.st58{fill:none;stroke:url(#SVGID_48_);stroke-miterlimit:10;}
	.st59{fill:#FFFFFF;stroke:url(#SVGID_49_);stroke-width:1.5;stroke-miterlimit:10;}
	.st60{fill:#FFFFFF;stroke:url(#SVGID_50_);stroke-width:1.5;stroke-miterlimit:10;}
	.st61{fill:none;stroke:url(#SVGID_51_);stroke-width:1.5;stroke-miterlimit:10;}
	.st62{fill:none;stroke:url(#SVGID_52_);stroke-width:1.5;stroke-miterlimit:10;}
	.st63{fill:none;stroke:url(#SVGID_53_);stroke-width:1.5;stroke-miterlimit:10;}
	.st64{fill:none;stroke:url(#SVGID_54_);stroke-width:1.5;stroke-miterlimit:10;}
	.st65{fill:#FFFFFF;stroke:url(#SVGID_55_);stroke-width:1.5;stroke-miterlimit:10;}
	.st66{fill:#FFFFFF;stroke:url(#SVGID_56_);stroke-width:1.5;stroke-miterlimit:10;}
	.st67{fill:#FFFFFF;stroke:url(#SVGID_57_);stroke-width:2;stroke-miterlimit:10;}
	.st68{fill:#FFFFFF;stroke:url(#SVGID_58_);stroke-miterlimit:10;}
	.st69{fill:#FFFFFF;stroke:url(#SVGID_59_);stroke-miterlimit:10;}
	.st70{fill:#FFFFFF;stroke:url(#SVGID_60_);stroke-miterlimit:10;}
	.st71{fill:#FFFFFF;stroke:url(#SVGID_61_);stroke-miterlimit:10;}
	.st72{fill:#FFFFFF;stroke:url(#SVGID_62_);stroke-width:1.5;stroke-miterlimit:10;}
	.st73{fill:none;stroke:url(#SVGID_63_);stroke-width:1.5;stroke-miterlimit:10;}
	.st74{fill:none;stroke:url(#SVGID_64_);stroke-width:1.5;stroke-miterlimit:10;}
	.st75{fill:none;stroke:url(#SVGID_65_);stroke-width:1.5;stroke-miterlimit:10;}
	.st76{fill:none;stroke:url(#SVGID_66_);stroke-width:1.5;stroke-miterlimit:10;}
	.st77{fill:url(#SVGID_67_);}
	.st78{fill:url(#SVGID_68_);}
	.st79{fill:url(#SVGID_69_);}
	.st80{fill:url(#SVGID_70_);}
	.st81{fill:url(#SVGID_71_);}
</style>
<g>
	<g>
		<path class="st0" d="M11.9,11.9c-0.5,0.5-1.2,0.8-1.9,0.8c-0.7,0-1.4-0.3-1.9-0.8c-0.1-0.1-0.3-0.1-0.4,0c-0.1,0.1-0.1,0.3,0,0.4
			c0.6,0.6,1.5,1,2.3,1c0.8,0,1.7-0.3,2.3-1c0.1-0.1,0.1-0.3,0-0.4C12.2,11.8,12,11.8,11.9,11.9L11.9,11.9z"/>
		<path class="st0" d="M8.1,8.1C8.6,7.5,9.3,7.3,10,7.3c0.7,0,1.4,0.3,1.9,0.8c0.1,0.1,0.3,0.1,0.4,0c0.1-0.1,0.1-0.3,0-0.4
			c-0.6-0.6-1.5-1-2.3-1c-0.8,0-1.7,0.3-2.3,1C7.6,7.8,7.6,8,7.7,8.1C7.8,8.2,8,8.2,8.1,8.1L8.1,8.1z"/>
	</g>
	<g>
		<circle class="st4" cx="14.9" cy="10.7" r="2"/>
		<path class="st4" d="M17.5,15.6H12v-0.2c0-1.5,1.2-2.8,2.8-2.8h0c1.5,0,2.8,1.2,2.8,2.8V15.6z"/>
	</g>
	<g>
		<circle class="st4" cx="5.4" cy="6.3" r="2"/>
		<path class="st4" d="M8.1,11.3H2.5v-0.2c0-1.5,1.2-2.8,2.8-2.8h0c1.5,0,2.8,1.2,2.8,2.8V11.3z"/>
	</g>
	<rect y="0" class="st10" width="20" height="20"/>
</g>
</svg>
