<?xml version="1.0" encoding="utf-8"?>
<!-- Generator: Adobe Illustrator 21.1.0, SVG Export Plug-In . SVG Version: 6.00 Build 0)  -->
<svg version="1.1" id="Layer_1" xmlns="http://www.w3.org/2000/svg" xmlns:xlink="http://www.w3.org/1999/xlink" x="0px" y="0px"
	 viewBox="0 0 40 40" style="enable-background:new 0 0 40 40;" xml:space="preserve">
<style type="text/css">
	.st0{fill:#BB2025;}
	.st1{fill:#ED3338;}
</style>
<g>
	<g>
		<path class="st0" d="M26.3,16.7c-0.8-0.7-1.6-1.3-2.6-1.7c2-1.2,3.3-3.3,3.3-5.7c0-3.7-3-6.6-6.6-6.6s-6.6,3-6.6,6.6
			c0,2.3,1.2,4.4,3,5.6c-1.2,0.4-2.2,1.2-3.1,2c-0.6,0.6-1,1.2-1.4,1.9l1.7,0.4c0.3-0.4,0.6-0.8,0.9-1.1c1.3-1.3,3.1-2.2,5.2-2.2
			c1.9,0,3.7,0.8,5.1,2.1c0.4,0.4,0.7,0.8,1,1.2l1.8-0.4C27.4,17.9,26.9,17.3,26.3,16.7z M15.4,9.2c0-2.7,2.2-4.9,4.9-4.9
			c2.7,0,4.9,2.2,4.9,4.9c0,2.7-2.2,4.9-4.9,4.9C17.6,14.1,15.4,11.9,15.4,9.2z"/>
	</g>
	<g>
		<polygon class="st1" points="32.8,19.3 32.8,34.4 20,37.4 7.2,34.4 7.2,19.3 11.5,20.3 13.2,20.7 20,22.3 20.2,22.3 26.8,20.7 
			28.5,20.3 		"/>
	</g>
</g>
</svg>
